<svg width="120" height="120" viewBox="0 0 120 120" fill="none" xmlns="http://www.w3.org/2000/svg">
<g clip-path="url(#clip0_1268_2)">
<path d="M45.3909 78.0317H19.9282L14.726 94.1853C14.5893 94.8013 14.0419 95.212 13.4259 95.144H0.557199C-0.195516 95.144 -0.400861 94.7333 -0.195516 93.9119L21.845 30.7339C22.0503 30.0498 22.2557 29.4338 22.529 28.6124C22.803 27.175 22.9397 25.6689 22.9397 24.1629C22.8717 23.8208 23.1451 23.4788 23.4871 23.4102H41.2154C41.6947 23.4102 42.0367 23.6155 42.1054 23.9575L67.0888 93.7746C67.2941 94.5279 67.0888 94.87 66.4047 94.87H52.0986C51.6199 94.9386 51.1406 94.5959 51.0039 94.1172L45.3909 77.6897V78.0317ZM23.8984 64.4103H41.284C40.8733 62.9729 40.3253 61.2622 39.7093 59.4821C39.0933 57.634 38.4772 55.6492 37.8612 53.5958C37.1771 51.4737 36.5611 49.4202 35.8764 47.2988C35.1917 45.1766 34.5763 43.1919 34.0283 41.2064C33.4809 39.2903 33.0016 37.5102 32.5222 35.8675H32.3856C31.7695 38.811 31.0168 41.7545 30.0581 44.6973C29.0314 47.9828 28.0047 51.4056 26.9099 54.8278C26.0199 58.3187 24.9245 61.5355 23.8984 64.4103ZM107.405 71.8714H85.7071C85.9804 73.9935 86.6651 76.115 87.8285 77.9631C89.0606 79.8112 90.772 81.2486 92.8254 82.0699C95.5636 83.234 98.5751 83.85 101.587 83.7814C103.983 83.7127 106.378 83.5074 108.706 83.0287C110.793 82.7552 112.839 82.2263 114.797 81.4539C115.139 81.1806 115.345 81.3172 115.345 82.0019V92.4745C115.345 92.7479 115.277 93.0219 115.208 93.2959C115.071 93.5012 114.934 93.6379 114.729 93.7746C112.54 94.7361 110.241 95.4257 107.884 95.828C104.682 96.4438 101.424 96.7191 98.1644 96.6494C92.9621 96.6494 88.5819 95.828 85.0224 94.2539C81.6682 92.8165 78.7254 90.5577 76.3979 87.7516C74.2307 85.1145 72.6237 82.0633 71.675 78.7844C70.7169 75.5676 70.2376 72.2134 70.2376 68.7912C70.2376 65.095 70.785 61.4675 71.949 57.908C73.0403 54.4808 74.7834 51.2967 77.0826 48.5308C79.3414 45.7927 82.1475 43.6026 85.3644 42.0278C88.5819 40.4537 92.4148 39.9064 96.7957 39.9064C100.423 39.8377 104.051 40.5224 107.405 42.0278C110.211 43.2599 112.675 45.108 114.592 47.5041C116.371 49.8309 117.809 52.4324 118.699 55.3072C119.589 58.0447 120 60.8515 120 63.6576C120 65.3004 119.931 66.7378 119.862 68.0385C119.726 69.3386 119.657 70.2973 119.589 70.9133C119.52 71.392 119.11 71.8027 118.63 71.8027C118.219 71.8027 117.467 71.8714 116.371 71.9401C115.277 72.0767 113.976 72.1454 112.402 72.1454C110.827 72.1454 109.184 71.8714 107.405 71.8714ZM85.7071 61.8782H100.149C101.929 61.8782 103.229 61.8782 104.051 61.8095C104.599 61.7409 105.146 61.6042 105.625 61.2622V60.5775C105.628 59.7164 105.489 58.8608 105.215 58.0447C103.983 54.2118 100.355 51.611 96.3163 51.7477C94.4586 51.6436 92.6105 52.0794 90.9951 53.0025C89.3796 53.9256 88.0659 55.2966 87.2125 56.9499C86.3911 58.524 85.9124 60.1668 85.7071 61.8782Z" fill="#9999FF"/>
</g>
<defs>
<clipPath id="clip0_1268_2">
<rect width="120" height="120" fill="white"/>
</clipPath>
</defs>
</svg>
