<svg width="48" height="48" viewBox="0 0 48 48" fill="none" xmlns="http://www.w3.org/2000/svg">
<path d="M40.05 37.5422C40.0594 37.5281 40.0734 37.5141 40.0828 37.5C43.1531 33.8484 45 29.1422 45 24C45 18.8578 43.1531 14.1516 40.0875 10.5C40.0781 10.4859 40.0641 10.4766 40.0547 10.4625C40.0031 10.4016 39.9562 10.3453 39.9047 10.2891C39.8859 10.2656 39.8672 10.2469 39.8484 10.2234L39.6562 10.0031L39.6516 9.99844C39.5813 9.91875 39.5062 9.83906 39.4359 9.75937L39.4313 9.75469C39.2813 9.59531 39.1312 9.43594 38.9766 9.28125L38.9719 9.27656L38.7469 9.05156L38.7328 9.0375C38.6625 8.96719 38.5922 8.90156 38.5219 8.83594C38.4984 8.8125 38.475 8.78906 38.4469 8.76562C38.4 8.71875 38.3531 8.67656 38.3063 8.63437C38.2922 8.62031 38.2734 8.60625 38.2594 8.5875C34.5188 5.11875 29.5078 3 24 3C18.4922 3 13.4812 5.11875 9.73594 8.5875C9.72187 8.60156 9.70312 8.61562 9.68906 8.63437C9.64219 8.67656 9.59531 8.72344 9.54844 8.77031C9.525 8.79375 9.50156 8.81719 9.47344 8.84063C9.40313 8.90625 9.33281 8.97656 9.2625 9.04219L9.24844 9.05625L9.02344 9.28125L9.01875 9.28594C8.86406 9.44063 8.71406 9.6 8.56406 9.75937L8.55938 9.76406C8.48438 9.84375 8.41406 9.92344 8.34375 10.0031L8.33906 10.0078C8.27344 10.0781 8.20781 10.1531 8.14688 10.2281C8.12813 10.2516 8.10938 10.2703 8.09063 10.2938C8.03906 10.35 7.99219 10.4109 7.94062 10.4672C7.93125 10.4813 7.91719 10.4906 7.90781 10.5047C4.84687 14.1516 3 18.8578 3 24C3 29.1422 4.84688 33.8484 7.9125 37.5C7.92188 37.5141 7.93594 37.5281 7.94531 37.5422L8.09063 37.7156C8.10938 37.7391 8.12813 37.7578 8.14688 37.7812L8.33906 38.0016C8.33906 38.0063 8.34375 38.0063 8.34375 38.0109C8.41406 38.0906 8.48438 38.1703 8.55938 38.2453L8.56406 38.25C8.71406 38.4094 8.86406 38.5687 9.01406 38.7234L9.01875 38.7281C9.09375 38.8031 9.16406 38.8781 9.23906 38.9484L9.25312 38.9625C9.40781 39.1172 9.56719 39.2672 9.72656 39.4125C13.4812 42.8812 18.4922 45 24 45C29.5078 45 34.5187 42.8812 38.2641 39.4125C38.4238 39.2661 38.58 39.1161 38.7328 38.9625L38.7469 38.9484C38.8219 38.8734 38.8969 38.8031 38.9672 38.7281L38.9719 38.7234C39.1266 38.5687 39.2766 38.4094 39.4219 38.25L39.4266 38.2453C39.4969 38.1656 39.5719 38.0906 39.6422 38.0109C39.6422 38.0063 39.6469 38.0063 39.6469 38.0016C39.7125 37.9313 39.7781 37.8563 39.8391 37.7812C39.8578 37.7578 39.8766 37.7391 39.8953 37.7156C39.9483 37.6591 39.9999 37.6013 40.05 37.5422ZM40.2422 30.8578C39.5953 32.3859 38.7422 33.8016 37.7016 35.0859C36.5296 34.0731 35.2482 33.1942 33.8812 32.4656C34.425 30.2672 34.7625 27.8531 34.8516 25.3125H41.5781C41.4375 27.2297 40.9875 29.0906 40.2422 30.8578ZM41.5781 22.6875H34.8516C34.7625 20.1469 34.425 17.7328 33.8812 15.5344C35.2547 14.8031 36.5344 13.9219 37.7016 12.9141C39.9636 15.6983 41.3167 19.1097 41.5781 22.6875ZM30.8578 7.75781C32.7187 8.54531 34.4109 9.63281 35.9016 11.0016C35.0356 11.7389 34.1036 12.3948 33.1172 12.9609C32.3813 10.8516 31.4391 9.01875 30.3422 7.55156C30.5156 7.61719 30.6891 7.6875 30.8578 7.75781ZM26.6109 40.5984C26.1797 40.9359 25.7484 41.1937 25.3125 41.3672V32.6719C27.1725 32.8016 29.0015 33.2158 30.7359 33.9C30.3469 35.0531 29.8969 36.1172 29.3766 37.0781C28.5609 38.5969 27.6047 39.8109 26.6109 40.5984ZM29.3766 10.9219C29.8922 11.8875 30.3469 12.9516 30.7359 14.1C29.0015 14.7842 27.1725 15.1984 25.3125 15.3281V6.6375C25.7437 6.81094 26.1797 7.06406 26.6109 7.40625C27.6047 8.18906 28.5609 9.40312 29.3766 10.9219ZM25.3125 30.0422V25.3125H32.2266C32.1516 27.3844 31.8938 29.3953 31.4625 31.3031L31.4484 31.3594C29.4813 30.6134 27.4125 30.1693 25.3125 30.0422ZM25.3125 22.6875V17.9578C27.4594 17.8266 29.5219 17.3719 31.4484 16.6406L31.4625 16.6969C31.8938 18.6047 32.1516 20.6109 32.2266 22.6875H25.3125ZM22.6875 25.3125V30.0422C20.5406 30.1734 18.4781 30.6281 16.5516 31.3594L16.5375 31.3031C16.1062 29.3953 15.8484 27.3891 15.7734 25.3125H22.6875ZM15.7734 22.6875C15.8484 20.6156 16.1062 18.6047 16.5375 16.6969L16.5516 16.6406C18.4781 17.3719 20.5359 17.8266 22.6875 17.9578V22.6875H15.7734ZM22.6875 32.6719V41.3625C22.2563 41.1891 21.8203 40.9359 21.3891 40.5938C20.3953 39.8109 19.4344 38.5922 18.6188 37.0734C18.1031 36.1078 17.6484 35.0437 17.2594 33.8953C19.0031 33.2109 20.8172 32.8031 22.6875 32.6719ZM22.6875 15.3281C20.8275 15.1984 18.9985 14.7842 17.2641 14.1C17.6531 12.9469 18.1031 11.8828 18.6234 10.9219C19.4391 9.40312 20.3953 8.18437 21.3937 7.40156C21.825 7.06406 22.2563 6.80625 22.6922 6.63281V15.3281H22.6875ZM17.1422 7.75781C17.3156 7.6875 17.4844 7.61719 17.6578 7.55156C16.5609 9.01875 15.6187 10.8516 14.8828 12.9609C13.8984 12.3984 12.9656 11.7422 12.0984 11.0016C13.5891 9.63281 15.2813 8.54531 17.1422 7.75781ZM7.75781 17.1422C8.40469 15.6141 9.25781 14.1984 10.2984 12.9141C11.4656 13.9219 12.7453 14.8031 14.1188 15.5344C13.575 17.7328 13.2375 20.1469 13.1484 22.6875H6.42188C6.5625 20.7703 7.0125 18.9094 7.75781 17.1422ZM6.42188 25.3125H13.1484C13.2375 27.8531 13.575 30.2672 14.1188 32.4656C12.7518 33.1942 11.4704 34.0731 10.2984 35.0859C8.03639 32.3017 6.68329 28.8903 6.42188 25.3125ZM17.1422 40.2422C15.2813 39.4547 13.5891 38.3672 12.0984 36.9984C12.9656 36.2578 13.8984 35.6063 14.8828 35.0391C15.6187 37.1484 16.5609 38.9813 17.6578 40.4484C17.4844 40.3828 17.3109 40.3125 17.1422 40.2422ZM30.8578 40.2422C30.6844 40.3125 30.5156 40.3828 30.3422 40.4484C31.4391 38.9813 32.3813 37.1484 33.1172 35.0391C34.1016 35.6016 35.0344 36.2578 35.9016 36.9984C34.4192 38.3615 32.713 39.4588 30.8578 40.2422Z" fill="black"/>
</svg>
