<svg width="28" height="28" viewBox="0 0 28 28" fill="none" xmlns="http://www.w3.org/2000/svg">
<g clip-path="url(#clip0_1185_91)">
<mask id="mask0_1185_91" style="mask-type:luminance" maskUnits="userSpaceOnUse" x="0" y="0" width="28" height="28">
<path d="M28 0H0V28H28V0Z" fill="white"/>
</mask>
<g mask="url(#mask0_1185_91)">
<path d="M8.75391 0H11.7616V1.25767H10.0116V2.51533H11.7616V3.773H8.75391V0ZM12.3624 0H15.3712V1.09433H13.6212V1.3125H15.3712V3.82783H12.3624V2.67983H14.1124V2.4605H12.3624V0ZM15.9732 0H18.9797V1.09433H17.2297V1.3125H18.9797V3.82783H15.9732V2.67983H17.7232V2.4605H15.9732V0Z" fill="#1572B6"/>
<path fill-rule="evenodd" clip-rule="evenodd" d="M13.9895 28.0007L5.88817 25.7514L3.5 5.50391H24.5L22.113 25.7491L13.9895 28.0007ZM8.2215 14.6692L8.44433 17.1519H17.0508L16.7627 20.3719L13.993 21.1209H13.9907L11.2257 20.3742L11.0483 18.3944H8.55517L8.90283 22.2934L13.9895 23.7051L19.0843 22.2934L19.705 15.3354L19.7657 14.6692L20.2137 9.64207H7.77467L8.001 12.1259H17.493L17.2667 14.6692H8.2215Z" fill="#1572B6"/>
</g>
</g>
<defs>
<clipPath id="clip0_1185_91">
<rect width="28" height="28" fill="white"/>
</clipPath>
</defs>
</svg>
