<svg width="24" height="24" viewBox="0 0 24 24" fill="none" xmlns="http://www.w3.org/2000/svg">
<path d="M14.6133 5.95312V10.0609L16.0503 10.9646C16.1022 10.9758 16.1559 10.9758 16.2078 10.9646L22.3863 6.79912C22.3818 6.59696 22.3078 6.40251 22.1768 6.24845C22.0459 6.09439 21.8658 5.99011 21.667 5.95312H14.6133Z" fill="white"/>
<path d="M14.6136 11.5925L15.9239 12.4925C15.9852 12.53 16.0557 12.5499 16.1275 12.5499C16.1994 12.5499 16.2699 12.53 16.3311 12.4925C16.1061 12.6282 22.3859 8.45898 22.3859 8.45898V16.0085C22.4023 16.1615 22.385 16.3162 22.3354 16.4618C22.2857 16.6074 22.2048 16.7404 22.0984 16.8515C21.9919 16.9626 21.8625 17.0491 21.7191 17.1049C21.5758 17.1607 21.4219 17.1846 21.2684 17.1747H14.6129L14.6136 11.5925ZM7.83065 9.69873C7.61296 9.69777 7.39906 9.75567 7.21159 9.8663C7.02411 9.97694 6.87003 10.1362 6.76565 10.3272C6.4807 10.8337 6.34399 11.4102 6.37115 11.9907C6.34154 12.5701 6.47843 13.1457 6.76565 13.6497C6.86953 13.833 7.0198 13.9856 7.20137 14.0923C7.38293 14.1991 7.5894 14.2562 7.80001 14.2578C8.01062 14.2595 8.21797 14.2057 8.4012 14.1019C8.58444 13.998 8.73712 13.8478 8.8439 13.6662C9.12854 13.1648 9.26264 12.5919 9.23015 12.0162C9.26264 11.4225 9.13301 10.8312 8.85515 10.3055C8.75558 10.1208 8.6076 9.96681 8.42711 9.85992C8.24662 9.75302 8.04042 9.6973 7.83065 9.69873Z" fill="white"/>
<path d="M1.61523 3.86625V19.9365L13.8402 22.5V1.5L1.61523 3.86625ZM9.79623 14.6182C9.56759 14.9407 9.26352 15.2023 8.91055 15.3802C8.55758 15.5581 8.16643 15.647 7.77123 15.639C7.38599 15.6458 7.0048 15.5595 6.66007 15.3874C6.31534 15.2153 6.01728 14.9625 5.79123 14.6505C5.25518 13.902 4.987 12.9947 5.02998 12.075C4.98449 11.1102 5.25751 10.1573 5.80698 9.363C6.0387 9.03459 6.34758 8.76817 6.70644 8.58716C7.06531 8.40616 7.46316 8.31613 7.86498 8.325C8.24739 8.31759 8.62578 8.40402 8.96704 8.57675C9.3083 8.74947 9.60202 9.0032 9.82248 9.31575C10.3532 10.0805 10.6168 10.999 10.5725 11.9287C10.6194 12.8866 10.3463 13.8328 9.79623 14.6182Z" fill="white"/>
</svg>
