<svg width="24" height="24" viewBox="0 0 24 24" fill="none" xmlns="http://www.w3.org/2000/svg">
<g clip-path="url(#clip0_1319_552)">
<path d="M14.2972 0.046875L16.7458 0.063C16.7919 0.0988125 16.8292 0.12225 16.8688 0.139875C17.3126 0.3405 17.7937 0.484125 18.1937 0.75075C19.3532 1.52138 20.4855 2.33344 21.617 3.14513C22.143 3.52144 22.6614 3.91331 23.1463 4.3395C23.5067 4.656 23.6685 5.10506 23.6694 5.58394L23.6685 20.6535C23.6679 20.8637 23.6319 21.0799 23.5734 21.282C23.3075 22.2034 22.7178 22.8339 21.7899 23.0801C21.3005 23.2097 20.7836 23.25 20.276 23.2918C19.4842 23.3576 18.6896 23.3899 17.8963 23.4375L16.3955 23.5312L13.9925 23.6726L12.5152 23.7649L10.0888 23.9055L8.83479 23.9569C8.79447 23.9589 8.75716 24.0154 8.7191 24.0469C7.76472 24.0469 6.8111 24.0469 5.84866 24.0315C5.80254 23.9949 5.76747 23.9655 5.72641 23.9539C5.14479 23.7853 4.6571 23.4639 4.2821 22.9973C3.76272 22.3521 3.26922 21.687 2.76972 21.0264C2.15585 20.2147 1.52604 19.4151 0.945912 18.5801C0.60493 18.0923 0.422295 17.5113 0.422787 16.9161C0.421152 12.4654 0.421715 8.01469 0.424475 3.564C0.424475 3.43575 0.446975 3.30619 0.4691 3.17869C0.701975 1.80844 1.71635 1.07737 2.92272 0.941812C3.54897 0.8715 4.17954 0.84 4.80879 0.798375L6.47191 0.702375L7.18685 0.6555L9.3431 0.4695L10.5384 0.37575L12.5182 0.235125L14.1813 0.136875C14.2218 0.134063 14.2592 0.078375 14.2972 0.046875ZM4.86504 21.4095C4.96479 21.5391 5.07597 21.6621 5.16316 21.7999C5.58579 22.4612 6.1916 22.7014 6.96129 22.6502L12.1755 22.3397L18.0435 21.9851L20.9651 21.7969C21.831 21.7273 22.2491 21.2593 22.266 20.3906V20.2031L22.2725 5.97881C22.2733 5.55037 22.1253 5.25075 21.7826 5.01131L17.6531 2.10131C16.9888 1.61794 16.2836 1.39237 15.4668 1.45687L10.8423 1.79887L6.00691 2.1555L2.97185 2.39213C2.35872 2.44838 1.97866 2.82338 1.86879 3.42488C1.84207 3.57842 1.82908 3.73403 1.82997 3.88988L1.81741 16.3102C1.8131 17.124 2.0621 17.8009 2.54922 18.4234L4.86504 21.4095Z" fill="white"/>
<path d="M6.0537 12.7501L6.05445 7.94695C6.05445 7.8457 6.05745 7.74333 6.07282 7.64377C6.13132 7.26502 6.30645 7.09814 6.69382 7.0732L9.73263 6.89077L15.811 6.53489L20.1366 6.2857C20.6149 6.2602 20.8216 6.45708 20.8529 6.93764C20.8574 7.00795 20.8551 7.07827 20.8551 7.14858L20.8544 19.238L20.8478 19.5193C20.7989 20.0377 20.5572 20.267 20.0341 20.2963L11.6406 20.7761L7.24526 21.0352L6.84776 21.0405C6.32257 21.0105 6.06532 20.7489 6.0552 20.2245L6.0537 19.0526V12.7501ZM14.6348 12.7625L12.2221 9.08658C12.1379 8.95833 12.0552 8.91595 11.8999 8.93283L10.8715 9.0022L8.97963 9.14077C8.51463 9.18333 8.23338 9.62058 8.3622 10.074L9.3642 10.1596V18.2771L8.6817 18.4696C8.37907 18.5589 8.24951 18.8139 8.35132 19.1398L10.6591 19.0072L11.5681 18.9326C11.9599 18.8681 12.1709 18.6279 12.2236 18.236L10.9617 17.9482V11.8426L11.0554 11.9739L13.9557 16.5024C14.382 17.1637 14.8198 17.8176 15.2689 18.4636C15.589 18.923 16.0608 19.0636 16.591 18.9493C16.9229 18.8784 17.2414 18.7436 17.5666 18.6388C17.7359 18.5838 17.7936 18.4828 17.7929 18.293L17.7873 9.94927C17.7873 9.46158 17.7873 9.46158 18.2697 9.36427C18.7576 9.26602 18.8798 9.0712 18.7684 8.54977L15.8528 8.72695C15.5356 8.74964 15.2954 9.01477 15.2472 9.3232C15.2236 9.47189 15.2543 9.55383 15.4323 9.56414L16.315 9.66164V15.3202C15.7559 14.4673 15.1958 13.615 14.6348 12.7633V12.7625ZM16.7894 2.89533C17.268 3.22585 17.7453 3.55835 18.2211 3.89283C18.5339 4.11146 18.8438 4.33417 19.1508 4.56089C19.2378 4.62539 19.3045 4.71689 19.4194 4.83633L19.1793 4.8802L12.9149 5.25595L7.09582 5.62083C6.3567 5.67427 5.71151 5.55258 5.15707 5.02608C4.86476 4.74858 4.52576 4.51927 4.20701 4.26802C4.07295 4.1617 3.93101 4.06289 3.80782 3.94495C3.74126 3.8812 3.65032 3.76495 3.67095 3.70683C3.6987 3.62489 3.81307 3.53414 3.90232 3.51802C4.17045 3.46964 4.44363 3.44977 4.71532 3.43008L13.7059 2.77683L15.5978 2.64483C16.0079 2.62233 16.4063 2.68795 16.7894 2.89533Z" fill="white"/>
</g>
<defs>
<clipPath id="clip0_1319_552">
<rect width="24" height="24" fill="white"/>
</clipPath>
</defs>
</svg>
