<svg width="75" height="75" viewBox="0 0 75 75" fill="none" xmlns="http://www.w3.org/2000/svg">
<g clip-path="url(#clip0_1167_63)">
<path d="M13.2809 0.9375C5.93731 0.9375 0 6.87539 0 14.2195V60.7805C0 68.1246 5.93731 74.0625 13.2809 74.0625H61.7191C69.0627 74.0625 75 68.1246 75 60.7805V14.2195C75 6.87539 69.0627 0.9375 61.7191 0.9375H13.2809ZM26.8752 19.5316C29.4375 19.5316 31.5627 19.8434 33.3123 20.4996C34.8812 21.0327 36.3117 21.9084 37.5 23.0631C38.5068 24.0733 39.2849 25.288 39.7816 26.625C40.2504 27.9375 40.4994 29.2811 40.4994 30.6873C40.4994 33.3748 39.8744 35.5936 38.6244 37.3436C37.3752 39.0932 35.6256 40.4062 33.5941 41.1562C31.4689 41.9379 29.1252 42.2186 26.5629 42.2186C25.8129 42.2186 25.3119 42.2186 24.9996 42.1875C24.6873 42.1564 24.2496 42.1564 23.6561 42.1564V52.1877C23.6871 52.4063 23.5312 52.5943 23.3127 52.6254H17.25C17.0004 52.6254 16.8762 52.4994 16.8762 52.2182V20.0625C16.8762 19.8439 16.9699 19.718 17.1885 19.718C17.7199 19.718 18.2197 19.718 18.9381 19.6875C19.6881 19.6559 20.4691 19.657 21.3129 19.6254C22.1566 19.5943 23.0631 19.5938 24.0316 19.5627C25.0008 19.5311 25.9377 19.5316 26.8752 19.5316ZM27.5725 25.6863C27.4129 25.6833 27.2533 25.6837 27.0938 25.6875C26.2816 25.6875 25.5627 25.6881 24.9686 25.7197C24.3439 25.6881 23.9068 25.7191 23.6883 25.7502V36.2502C24.1254 36.2818 24.5309 36.3123 24.9059 36.3123H26.5629C27.7816 36.3123 29.0004 36.1248 30.1564 35.7498C31.1566 35.4686 32.0314 34.8744 32.7188 34.0934C33.375 33.3117 33.6879 32.25 33.6879 30.8748C33.7166 29.8985 33.4675 28.9342 32.9695 28.0939C32.4381 27.2818 31.6875 26.6561 30.7811 26.3127C29.7691 25.9025 28.6857 25.708 27.5725 25.6863ZM53.7814 27.2818C55.0629 27.2818 56.3754 27.3744 57.6562 27.5619C58.5938 27.6867 59.4996 27.9381 60.3434 28.282C60.4688 28.3131 60.5936 28.4373 60.6557 28.5621C60.6873 28.6869 60.7189 28.8123 60.7189 28.9371V34.0313C60.7193 34.0919 60.7053 34.1517 60.6783 34.206C60.6512 34.2602 60.6117 34.3074 60.5631 34.3436C60.2818 34.4063 60.1254 34.4063 60.0006 34.3436C59.0631 33.8438 58.0623 33.5004 56.9994 33.2818C55.8434 33.0316 54.6873 32.8746 53.5002 32.8746C52.875 32.843 52.2182 32.9379 51.6246 33.0938C51.218 33.1875 50.8746 33.4066 50.6561 33.7189C50.5002 33.9691 50.4064 34.2814 50.4064 34.5627C50.4064 34.8439 50.5318 35.1252 50.7193 35.3748C51.0006 35.7188 51.375 36.0006 51.7811 36.2197C52.5057 36.5943 53.2461 36.9377 54 37.2492C55.6875 37.8117 57.3123 38.5939 58.8123 39.5314C59.8436 40.1877 60.6873 41.0631 61.2809 42.1254C61.7836 43.1221 62.0309 44.2281 62.0004 45.3439C62.0258 46.8211 61.6002 48.2709 60.7805 49.5C59.9091 50.7473 58.6931 51.7137 57.2812 52.2809C55.7496 52.9371 53.8746 53.2811 51.6246 53.2811C50.1867 53.2811 48.7816 53.1562 47.3754 52.875C46.2732 52.6846 45.2013 52.3482 44.1879 51.8748C43.9693 51.75 43.8123 51.5309 43.8434 51.2807V45.8438C43.8434 45.75 43.8744 45.6246 43.9682 45.5625C44.0619 45.4998 44.1557 45.532 44.2494 45.5941C45.4531 46.3043 46.7608 46.8211 48.1248 47.1258C49.3125 47.4381 50.5629 47.5939 51.8133 47.5939C53.0004 47.5939 53.8441 47.4375 54.4066 47.1563C54.9064 46.9377 55.2498 46.4062 55.2498 45.8438C55.2498 45.4066 55.0002 44.9994 54.4998 44.5928C54 44.1867 52.9688 43.7186 51.4377 43.125C49.8666 42.5717 48.3747 41.8153 46.9998 40.875C46.0206 40.1772 45.2093 39.2699 44.625 38.2189C44.1263 37.232 43.8795 36.1369 43.9066 35.0314C43.9066 33.6879 44.2811 32.4064 44.9684 31.2504C45.7494 30.0006 46.9066 29.0004 48.2508 28.3758C49.7191 27.6258 51.5619 27.2818 53.7814 27.2818Z" fill="#808080"/>
</g>
<defs>
<clipPath id="clip0_1167_63">
<rect width="75" height="75" fill="white"/>
</clipPath>
</defs>
</svg>
