<svg width="76" height="75" viewBox="0 0 76 75" fill="none" xmlns="http://www.w3.org/2000/svg">
<path d="M36.959 6.25H26.5402C23.7774 6.25 21.1277 7.34752 19.1741 9.30112C17.2205 11.2547 16.123 13.9044 16.123 16.6672C16.123 19.43 17.2205 22.0797 19.1741 24.0333C21.1277 25.9869 23.7774 27.0844 26.5402 27.0844H36.959V6.25Z" fill="#F24E1E"/>
<path d="M36.9594 27.084H26.5406C23.7782 27.084 21.129 28.1813 19.1757 30.1347C17.2224 32.088 16.125 34.7372 16.125 37.4996C16.125 40.262 17.2224 42.9113 19.1757 44.8646C21.129 46.8179 23.7782 47.9152 26.5406 47.9152H36.9594V27.084Z" fill="#A259FF"/>
<path d="M57.7914 37.4992C57.7914 40.262 56.6939 42.9117 54.7402 44.8653C52.7866 46.8189 50.137 47.9164 47.3742 47.9164C44.6114 47.9164 41.9617 46.8189 40.0081 44.8653C38.0545 42.9117 36.957 40.262 36.957 37.4992C36.957 34.7364 38.0545 32.0868 40.0081 30.1332C41.9617 28.1796 44.6114 27.082 47.3742 27.082C50.137 27.082 52.7866 28.1796 54.7402 30.1332C56.6939 32.0868 57.7914 34.7364 57.7914 37.4992Z" fill="#1ABCFE"/>
<path d="M26.5414 47.9199H36.9601V58.3356C36.9595 60.3953 36.3482 62.4086 35.2035 64.121C34.0588 65.8334 32.432 67.1679 30.5289 67.9558C28.6259 68.7438 26.5319 68.9498 24.5117 68.5478C22.4916 68.1458 20.636 67.1539 19.1795 65.6974C17.7231 64.2409 16.7312 62.3853 16.3292 60.3652C15.9272 58.345 16.1332 56.2511 16.9211 54.348C17.7091 52.4449 19.0436 50.8182 20.7559 49.6735C22.4683 48.5287 24.4816 47.9206 26.5414 47.9199Z" fill="#0ACF83"/>
<path opacity="0.8" d="M36.957 6.25H47.3726C50.1354 6.25 52.7851 7.34752 54.7387 9.30112C56.6923 11.2547 57.7898 13.9044 57.7898 16.6672C57.7898 19.43 56.6923 22.0797 54.7387 24.0333C52.7851 25.9869 50.1354 27.0844 47.3726 27.0844H36.957V6.25Z" fill="#FF7262"/>
</svg>
