<svg width="28" height="28" viewBox="0 0 28 28" fill="none" xmlns="http://www.w3.org/2000/svg">
<g clip-path="url(#clip0_1185_80)">
<mask id="mask0_1185_80" style="mask-type:luminance" maskUnits="userSpaceOnUse" x="0" y="0" width="28" height="28">
<path d="M28 0H0V28H28V0Z" fill="white"/>
</mask>
<g mask="url(#mask0_1185_80)">
<mask id="mask1_1185_80" style="mask-type:luminance" maskUnits="userSpaceOnUse" x="0" y="0" width="28" height="28">
<path d="M0 0H28V28H0V0Z" fill="white"/>
</mask>
<g mask="url(#mask1_1185_80)">
<path d="M5.92578 0H7.18811V1.24717H8.34311V0H9.60545V3.77533H8.34311V2.51183H7.18811V3.77533H5.92695L5.92578 0ZM11.2644 1.25183H10.1538V0H13.6386V1.25183H12.5268V3.77533H11.2644V1.25183ZM14.1916 0H15.5076L16.3173 1.3265L17.1258 0H18.4418V3.77533H17.1853V1.904L16.3173 3.24683H16.2951L15.4259 1.90517V3.77533H14.1916V0ZM19.0694 0H20.3329V2.52817H22.1063V3.7765H19.0694V0Z" fill="#E44F26"/>
<path fill-rule="evenodd" clip-rule="evenodd" d="M5.887 25.7514L3.5 5.50391H24.5L22.1118 25.7491L13.9883 28.0007L5.887 25.7514ZM10.7135 14.6681L10.4872 12.1247H19.9897L20.2113 9.64207H7.77467L8.44433 17.1519H17.0508L16.7627 20.3719L13.993 21.1209H13.9907L11.2257 20.3742L11.0483 18.3944H8.554L8.90167 22.2934L13.9883 23.7051L19.0832 22.2934L19.7038 15.3354L19.7645 14.6692L10.7135 14.6681Z" fill="#E44F26"/>
</g>
</g>
</g>
<defs>
<clipPath id="clip0_1185_80">
<rect width="28" height="28" fill="white"/>
</clipPath>
</defs>
</svg>
