<svg width="48" height="48" viewBox="0 0 48 48" fill="none" xmlns="http://www.w3.org/2000/svg">
<path d="M9.00001 4.4L8.9 4.39999V4.5V43.5V43.6H9H39H39.1V43.5V14.391V14.3528L39.0745 14.3243L38.6545 13.8548L38.6546 13.8547L38.6507 13.8508L29.6507 4.85079L29.6508 4.85067L29.6466 4.84686L29.1756 4.42686L29.1471 4.4015L29.109 4.4015L9.00001 4.4ZM27 16.6H35.9V40.4H12.1V7.6H26.9V16.5V16.6H27ZM16.5 19.4H16.4V19.5V22.5V22.6H16.5H31.5H31.6V22.5V19.5V19.4H31.5H16.5ZM16.5 25.4H16.4V25.5V28.5V28.6H16.5H31.5H31.6V28.5V25.5V25.4H31.5H16.5ZM16.5 31.4H16.4V31.5V34.5V34.6H16.5H31.5H31.6V34.5V31.5V31.4H31.5H16.5ZM30.1 13.4V9.89836L33.603 13.4H30.1Z" fill="black" stroke="black" stroke-width="0.2"/>
</svg>
