<svg width="76" height="75" viewBox="0 0 76 75" fill="none" xmlns="http://www.w3.org/2000/svg">
<path d="M38.0253 53.02H19.8878L16.1822 65.0289C16.0848 65.4888 15.6949 65.7954 15.2561 65.7442H6.08959C5.55342 65.7442 5.40715 65.4376 5.55342 64.8244L21.2532 17.4536C21.3995 16.9429 21.5457 16.3804 21.7404 15.7672C21.9356 14.6941 22.033 13.5702 22.033 12.4458C21.9845 12.1905 22.1792 11.9346 22.4233 11.8839H35.051C35.4413 11.8839 35.6361 12.0372 35.685 12.2925L53.481 64.9269C53.6272 65.4888 53.481 65.7442 52.9937 65.7442H42.8033C42.4623 65.7954 42.1208 65.5401 42.0235 65.1822L38.0253 53.02ZM22.7159 42.6466H35.0999C34.8074 41.5735 34.4174 40.2958 33.9786 38.9673C33.5398 37.5876 33.101 36.1058 32.6622 34.5728C32.1745 32.9885 31.7357 31.4554 31.248 29.8711C30.7607 28.2873 30.3219 26.8051 29.9315 25.3233C29.5416 23.8928 29.2002 22.5638 28.8592 21.3374H28.7614C28.3226 23.5349 27.7864 25.7324 27.104 27.9295C26.3726 30.3823 25.6413 32.9372 24.861 35.4926C24.2313 37.9045 23.5158 40.2908 22.7159 42.6466ZM64.3538 20.8262C62.7448 20.8775 61.1848 20.213 60.0146 19.0379C58.8934 17.7602 58.3083 16.0738 58.3568 14.3367C58.3083 12.5991 58.9418 10.964 60.112 9.78838C61.2822 8.61321 62.8427 8 64.4516 8C66.3531 8 67.8158 8.61321 68.8882 9.78838C69.9687 11.0273 70.5459 12.6589 70.4971 14.3367C70.546 16.0738 69.961 17.7602 68.7908 19.0379C67.6696 20.2643 66.0117 20.9288 64.3538 20.8262ZM58.8934 65.1822V25.8345C58.8934 25.3233 59.0881 25.1187 59.5269 25.1187H69.1807C69.6195 25.1187 69.8147 25.3746 69.8147 25.8345V65.1822C69.8147 65.7442 69.6195 66 69.1807 66H59.6247C59.137 66 58.8934 65.6934 58.8934 65.1822Z" fill="#FF9A00"/>
</svg>
