<svg width="75" height="75" viewBox="0 0 75 75" fill="none" xmlns="http://www.w3.org/2000/svg">
<path d="M37.5253 53.02H19.3878L15.6822 65.0289C15.5848 65.4888 15.1949 65.7954 14.7561 65.7442H5.58959C5.05342 65.7442 4.90715 65.4376 5.05342 64.8244L20.7532 17.4536C20.8995 16.9429 21.0457 16.3804 21.2404 15.7672C21.4356 14.6941 21.533 13.5702 21.533 12.4458C21.4845 12.1905 21.6792 11.9346 21.9233 11.8839H34.551C34.9413 11.8839 35.1361 12.0372 35.185 12.2925L52.981 64.9269C53.1272 65.4888 52.981 65.7442 52.4937 65.7442H42.3033C41.9623 65.7954 41.6208 65.5401 41.5235 65.1822L37.5253 53.02ZM22.2159 42.6466H34.5999C34.3074 41.5735 33.9174 40.2958 33.4786 38.9673C33.0398 37.5876 32.601 36.1058 32.1622 34.5728C31.6745 32.9885 31.2357 31.4554 30.748 29.8711C30.2607 28.2873 29.8219 26.8051 29.4315 25.3233C29.0416 23.8928 28.7002 22.5638 28.3592 21.3374H28.2614C27.8226 23.5349 27.2864 25.7324 26.604 27.9295C25.8726 30.3823 25.1413 32.9372 24.361 35.4926C23.7313 37.9045 23.0158 40.2908 22.2159 42.6466ZM63.8538 20.8262C62.2448 20.8775 60.6848 20.213 59.5146 19.0379C58.3934 17.7602 57.8083 16.0738 57.8568 14.3367C57.8083 12.5991 58.4418 10.964 59.612 9.78838C60.7822 8.61321 62.3427 8 63.9516 8C65.8531 8 67.3158 8.61321 68.3882 9.78838C69.4687 11.0273 70.0459 12.6589 69.9971 14.3367C70.046 16.0738 69.461 17.7602 68.2908 19.0379C67.1696 20.2643 65.5117 20.9288 63.8538 20.8262ZM58.3934 65.1822V25.8345C58.3934 25.3233 58.5881 25.1187 59.0269 25.1187H68.6807C69.1195 25.1187 69.3147 25.3746 69.3147 25.8345V65.1822C69.3147 65.7442 69.1195 66 68.6807 66H59.1247C58.637 66 58.3934 65.6934 58.3934 65.1822Z" fill="#808080"/>
</svg>
