<svg width="28" height="28" viewBox="0 0 28 28" fill="none" xmlns="http://www.w3.org/2000/svg">
<path d="M7.23333 2.80078C6.24319 2.80078 5.2936 3.19411 4.59347 3.89425C3.89333 4.59439 3.5 5.54397 3.5 6.53411V21.4674C3.5 22.4576 3.89333 23.4072 4.59347 24.1073C5.2936 24.8074 6.24319 25.2008 7.23333 25.2008H22.1667C23.1568 25.2008 24.1064 24.8074 24.8065 24.1073C25.5067 23.4072 25.9 22.4576 25.9 21.4674V6.53411C25.9 5.54397 25.5067 4.59439 24.8065 3.89425C24.1064 3.19411 23.1568 2.80078 22.1667 2.80078H7.23333ZM16.3601 19.047C17.2561 19.7688 18.1496 20.1234 19.0431 20.1147C19.5907 20.1147 20.0113 20.0152 20.3025 19.8136C20.4385 19.7253 20.5491 19.6032 20.6235 19.4591C20.6979 19.3151 20.7335 19.1542 20.7268 18.9922C20.7287 18.8156 20.6917 18.6407 20.6186 18.4799C20.5455 18.319 20.438 18.1762 20.3037 18.0614C20.0113 17.8063 19.4588 17.5512 18.6461 17.2948C17.6705 17.0123 16.9164 16.6477 16.3875 16.1997C15.8673 15.7517 15.6035 15.127 15.5935 14.3243C15.5935 13.5665 15.922 12.933 16.5791 12.4216C17.2188 11.9114 18.0351 11.655 19.0307 11.655C20.417 11.655 21.5308 11.9922 22.3695 12.668L21.4113 14.1601C21.0663 13.8917 20.6705 13.6961 20.2477 13.5851C19.8678 13.4581 19.471 13.3889 19.0705 13.3798C18.5976 13.3798 18.218 13.4669 17.9343 13.6399C17.6518 13.8141 17.5112 14.0418 17.5112 14.3243C17.5112 14.6354 17.6842 14.8993 18.0301 15.1183C18.3786 15.3286 18.9709 15.5613 19.8097 15.8164C20.8227 16.1176 21.5444 16.5195 21.9725 17.021C22.4019 17.5226 22.6159 18.1622 22.6159 18.9375C22.6159 19.7314 22.311 20.4159 21.6988 20.9908C21.0964 21.557 20.2204 21.8532 19.0705 21.8806C17.5647 21.8806 16.3053 21.4289 15.2924 20.5254L16.3601 19.047ZM9.47831 19.841C9.77076 20.0239 10.1217 20.1147 10.5324 20.1147C10.9617 20.1147 11.3164 19.9915 11.6001 19.7451C11.8826 19.49 12.0244 19.047 12.0244 18.4173V11.8193H13.8724V18.7732C13.8451 19.8497 13.5352 20.6262 12.9416 21.1003C12.6177 21.3757 12.2401 21.5808 11.8328 21.7026C11.4555 21.8176 11.0636 21.8775 10.6692 21.8806C9.9848 21.8806 9.37751 21.7624 8.84862 21.5247C8.2824 21.2696 7.80827 20.8178 7.42498 20.1695L8.71173 19.1154C8.94818 19.4353 9.20453 19.6767 9.47831 19.841Z" fill="#808080"/>
</svg>
