<svg width="100" height="100" viewBox="0 0 100 100" fill="none" xmlns="http://www.w3.org/2000/svg">
<path d="M15.9533 29.8491C9.04759 39.8876 9.90728 52.9495 15.1826 63.6168C15.3078 63.8727 15.4393 64.1241 15.5689 64.3755L15.8156 64.8562L15.9696 65.133L16.2445 65.6308C16.4085 65.9225 16.5763 66.2136 16.7479 66.5041L17.0353 66.9829C17.2257 67.2932 17.4204 67.6014 17.6195 67.9075L17.8687 68.2963C18.1436 68.7111 18.4247 69.1253 18.7153 69.5319L18.7397 69.5636L18.8824 69.7586C19.1342 70.1091 19.3913 70.4551 19.6538 70.7966L19.9444 71.1703C20.1781 71.4671 20.4157 71.7624 20.6569 72.0563L20.9293 72.3856C21.2542 72.7734 21.5853 73.156 21.9224 73.5331L21.943 73.554L21.9812 73.5971C22.3125 73.9607 22.649 74.3194 22.9906 74.6731L23.3143 75.003C23.5794 75.2724 23.848 75.5388 24.1201 75.8023L24.4501 76.1189C24.8129 76.4651 25.181 76.8044 25.5546 77.1366L25.5722 77.1506L25.7644 77.3165C26.095 77.6061 26.4296 77.8917 26.7681 78.1734L27.1839 78.5084C27.4602 78.7326 27.739 78.9529 28.0204 79.1695L28.4675 79.5134C28.778 79.7448 29.0909 79.9717 29.4061 80.1942L29.7479 80.4393L29.8418 80.5071C30.1411 80.7154 30.4473 80.9162 30.7535 81.117L31.148 81.3829C31.6176 81.6831 32.0935 81.9801 32.575 82.267L32.9694 82.4919C33.323 82.6987 33.6799 82.9012 34.0401 83.0992C34.2355 83.2056 34.4359 83.3063 34.6325 83.4082C34.8873 83.5431 35.1403 83.6799 35.3995 83.811L35.5767 83.8978L35.8904 84.051C36.2916 84.2453 36.6965 84.4346 37.1051 84.6191L37.3618 84.7357C37.8305 84.943 38.3029 85.1417 38.7788 85.3316L39.1238 85.469C39.5646 85.6406 40.0117 85.8104 40.4606 85.97L40.6284 86.0289C41.1212 86.203 41.6184 86.3645 42.1193 86.5222L42.4793 86.6311C42.989 86.7863 43.4931 86.9718 44.0184 87.07C77.4163 93.2302 87.1178 66.7707 87.1178 66.7707C78.9698 77.5071 64.5071 80.3393 50.8039 77.186C50.2848 77.0676 49.7814 76.9036 49.2749 76.7522L48.8936 76.6351C48.4 76.482 47.909 76.3205 47.4209 76.1506L47.2186 76.0765C46.7833 75.9209 46.3504 75.7585 45.92 75.5895L45.5556 75.4444C45.0839 75.2566 44.6166 75.06 44.1536 74.8548L43.8738 74.7294C43.4774 74.5484 43.0832 74.3628 42.691 74.1728L42.3491 74.0068C42.0416 73.8555 41.7373 73.6946 41.4343 73.5363C41.2314 73.428 41.0248 73.326 40.8238 73.2133C40.4549 73.0123 40.0894 72.805 39.7274 72.5914L39.3574 72.3824C38.8767 72.0955 38.4008 71.8005 37.9298 71.4977L37.5447 71.238C37.2022 71.0159 36.8634 70.7881 36.5284 70.5547L36.2016 70.3223C35.879 70.0916 35.5588 69.8575 35.2411 69.6199L34.8159 69.2944C34.524 69.07 34.2352 68.8415 33.9494 68.6092L33.563 68.2957C33.1991 67.9939 32.8392 67.6872 32.4836 67.3755L32.3652 67.2748C31.982 66.9327 31.6038 66.585 31.2306 66.2318L30.9107 65.9208C30.6345 65.6548 30.3628 65.3869 30.0954 65.1121L29.7761 64.7897C29.4368 64.4385 29.1033 64.0817 28.7755 63.7194L28.7261 63.6662C28.3807 63.2833 28.0423 62.8939 27.7111 62.4984L27.4456 62.1792C27.1981 61.8781 26.9545 61.5736 26.7149 61.266L26.4475 60.9291C26.161 60.5545 25.8798 60.1757 25.6041 59.793C17.9964 49.2966 15.2627 34.8205 21.3432 22.9321M37.3906 21.3906C32.3959 28.6597 32.6676 38.3911 36.5635 46.0787C37.2162 47.3707 37.9542 48.6167 38.7726 49.8083C39.5208 50.8931 40.3504 52.1838 41.3435 53.0552C41.7066 53.4575 42.0803 53.8499 42.4643 54.2319L42.7598 54.5264C43.1328 54.8941 43.5145 55.2526 43.9044 55.6017L43.9508 55.6423L43.962 55.6537C44.3983 56.038 44.844 56.4111 45.2989 56.7727L45.6025 57.0121C46.0598 57.3684 46.526 57.7129 47.0007 58.045L47.0414 58.0761C47.2518 58.223 47.4659 58.3598 47.6795 58.5016L47.9819 58.7037C48.3225 58.9253 48.6679 59.1396 49.0182 59.3465L49.1653 59.4326C49.4684 59.6091 49.7737 59.7818 50.0813 59.9506L50.4076 60.1223C50.6198 60.2344 50.8321 60.349 51.0481 60.4579L51.1452 60.5023C51.5854 60.7214 52.0293 60.9329 52.4826 61.1324L52.7782 61.2553C53.1407 61.411 53.507 61.563 53.8739 61.7049L54.3435 61.8791C54.6773 62.0045 55.0122 62.1184 55.3497 62.2331L55.8049 62.3806C56.2852 62.5314 56.7598 62.722 57.2601 62.8062C83.0466 67.1273 89 47.0458 89 47.0458C83.6339 54.8627 73.2412 58.5928 62.1515 55.6809C61.6613 55.5506 61.1742 55.4083 60.6907 55.2541L60.2518 55.1103C59.9092 54.9983 59.5687 54.8796 59.2306 54.7544L58.7697 54.5809C58.4008 54.4377 58.0342 54.2882 57.6702 54.1325L57.3741 54.0058C56.9207 53.8061 56.4722 53.5952 56.0291 53.3731C55.8018 53.261 55.5783 53.1426 55.3541 53.0261L54.9647 52.8234C54.6774 52.6659 54.3929 52.5033 54.1112 52.3358L53.9071 52.2186C53.5583 52.0129 53.2136 51.8001 52.8733 51.5803L52.5615 51.37C52.3369 51.2231 52.1137 51.0738 51.8922 50.9223C51.4196 50.5898 50.9548 50.246 50.4984 49.8912L50.1847 49.6411C45.3308 45.7653 41.4825 40.467 39.6535 34.4601C37.7363 28.231 38.1495 21.238 41.4712 15.5623M55.4205 15.0715C52.4764 19.454 52.1871 24.8966 54.2302 29.7363C56.3847 34.8743 60.7991 38.904 65.9516 40.816C66.1639 40.8951 66.3768 40.9661 66.5915 41.0402L66.8739 41.1307C67.1776 41.227 67.4788 41.3391 67.7925 41.3993C82.031 44.182 85.8931 34.0092 86.9206 32.5115C83.5381 37.4379 77.8527 38.6203 70.8769 36.9079C70.3259 36.773 69.7204 36.5716 69.1894 36.381C68.5072 36.1361 67.8382 35.8552 67.1851 35.5393C65.9454 34.9366 64.7682 34.2102 63.6712 33.3709C57.4292 28.5799 53.5514 19.442 57.6245 12" fill="#0868AC"/>
</svg>
