<svg width="200" height="100" viewBox="0 0 200 100" fill="none" xmlns="http://www.w3.org/2000/svg">
<path d="M115.953 29.8491C109.048 39.8876 109.907 52.9495 115.183 63.6168C115.308 63.8727 115.439 64.1241 115.569 64.3755L115.816 64.8562L115.97 65.133L116.244 65.6308C116.408 65.9225 116.576 66.2136 116.748 66.5041L117.035 66.9829C117.226 67.2932 117.42 67.6014 117.619 67.9075L117.869 68.2963C118.144 68.7111 118.425 69.1253 118.715 69.5319L118.74 69.5636L118.882 69.7586C119.134 70.1091 119.391 70.4551 119.654 70.7966L119.944 71.1703C120.178 71.4671 120.416 71.7624 120.657 72.0563L120.929 72.3856C121.254 72.7734 121.585 73.156 121.922 73.5331L121.943 73.554L121.981 73.5971C122.312 73.9607 122.649 74.3194 122.991 74.6731L123.314 75.003C123.579 75.2724 123.848 75.5388 124.12 75.8023L124.45 76.1189C124.813 76.4651 125.181 76.8044 125.555 77.1366L125.572 77.1506L125.764 77.3165C126.095 77.6061 126.43 77.8917 126.768 78.1734L127.184 78.5084C127.46 78.7326 127.739 78.9529 128.02 79.1695L128.467 79.5134C128.778 79.7448 129.091 79.9717 129.406 80.1942L129.748 80.4393L129.842 80.5071C130.141 80.7154 130.447 80.9162 130.753 81.117L131.148 81.3829C131.618 81.6831 132.093 81.9801 132.575 82.267L132.969 82.4919C133.323 82.6987 133.68 82.9012 134.04 83.0992C134.235 83.2056 134.436 83.3063 134.632 83.4082C134.887 83.5431 135.14 83.6799 135.399 83.811L135.577 83.8978L135.89 84.051C136.292 84.2453 136.696 84.4346 137.105 84.6191L137.362 84.7357C137.83 84.943 138.303 85.1417 138.779 85.3316L139.124 85.469C139.565 85.6406 140.012 85.8104 140.461 85.97L140.628 86.0289C141.121 86.203 141.618 86.3645 142.119 86.5222L142.479 86.6311C142.989 86.7863 143.493 86.9718 144.018 87.07C177.416 93.2302 187.118 66.7707 187.118 66.7707C178.97 77.5071 164.507 80.3393 150.804 77.186C150.285 77.0676 149.781 76.9036 149.275 76.7522L148.894 76.6351C148.4 76.482 147.909 76.3205 147.421 76.1506L147.219 76.0765C146.783 75.9209 146.35 75.7585 145.92 75.5895L145.556 75.4444C145.084 75.2566 144.617 75.06 144.154 74.8548L143.874 74.7294C143.477 74.5484 143.083 74.3628 142.691 74.1728L142.349 74.0068C142.042 73.8555 141.737 73.6946 141.434 73.5363C141.231 73.428 141.025 73.326 140.824 73.2133C140.455 73.0123 140.089 72.805 139.727 72.5914L139.357 72.3824C138.877 72.0955 138.401 71.8005 137.93 71.4977L137.545 71.238C137.202 71.0159 136.863 70.7881 136.528 70.5547L136.202 70.3223C135.879 70.0916 135.559 69.8575 135.241 69.6199L134.816 69.2944C134.524 69.07 134.235 68.8415 133.949 68.6092L133.563 68.2957C133.199 67.9939 132.839 67.6872 132.484 67.3755L132.365 67.2748C131.982 66.9327 131.604 66.585 131.231 66.2318L130.911 65.9208C130.634 65.6548 130.363 65.3869 130.095 65.1121L129.776 64.7897C129.437 64.4385 129.103 64.0817 128.775 63.7194L128.726 63.6662C128.381 63.2833 128.042 62.8939 127.711 62.4984L127.446 62.1792C127.198 61.8781 126.954 61.5736 126.715 61.266L126.447 60.9291C126.161 60.5545 125.88 60.1757 125.604 59.793C117.996 49.2966 115.263 34.8205 121.343 22.9321M137.391 21.3906C132.396 28.6597 132.668 38.3911 136.563 46.0787C137.216 47.3707 137.954 48.6167 138.773 49.8083C139.521 50.8931 140.35 52.1838 141.343 53.0552C141.707 53.4575 142.08 53.8499 142.464 54.2319L142.76 54.5264C143.133 54.8941 143.514 55.2526 143.904 55.6017L143.951 55.6423L143.962 55.6537C144.398 56.038 144.844 56.4111 145.299 56.7727L145.602 57.0121C146.06 57.3684 146.526 57.7129 147.001 58.045L147.041 58.0761C147.252 58.223 147.466 58.3598 147.679 58.5016L147.982 58.7037C148.322 58.9253 148.668 59.1396 149.018 59.3465L149.165 59.4326C149.468 59.6091 149.774 59.7818 150.081 59.9506L150.408 60.1223C150.62 60.2344 150.832 60.349 151.048 60.4579L151.145 60.5023C151.585 60.7214 152.029 60.9329 152.483 61.1324L152.778 61.2553C153.141 61.411 153.507 61.563 153.874 61.7049L154.343 61.8791C154.677 62.0045 155.012 62.1184 155.35 62.2331L155.805 62.3806C156.285 62.5314 156.76 62.722 157.26 62.8062C183.047 67.1273 189 47.0458 189 47.0458C183.634 54.8627 173.241 58.5928 162.151 55.6809C161.661 55.5506 161.174 55.4083 160.691 55.2541L160.252 55.1103C159.909 54.9983 159.569 54.8796 159.231 54.7544L158.77 54.5809C158.401 54.4377 158.034 54.2882 157.67 54.1325L157.374 54.0058C156.921 53.8061 156.472 53.5952 156.029 53.3731C155.802 53.261 155.578 53.1426 155.354 53.0261L154.965 52.8234C154.677 52.6659 154.393 52.5033 154.111 52.3358L153.907 52.2186C153.558 52.0129 153.214 51.8001 152.873 51.5803L152.561 51.37C152.337 51.2231 152.114 51.0738 151.892 50.9223C151.42 50.5898 150.955 50.246 150.498 49.8912L150.185 49.6411C145.331 45.7653 141.482 40.467 139.653 34.4601C137.736 28.231 138.149 21.238 141.471 15.5623M155.42 15.0715C152.476 19.454 152.187 24.8966 154.23 29.7363C156.385 34.8743 160.799 38.904 165.952 40.816C166.164 40.8951 166.377 40.9661 166.591 41.0402L166.874 41.1307C167.178 41.227 167.479 41.3391 167.792 41.3993C182.031 44.182 185.893 34.0092 186.921 32.5115C183.538 37.4379 177.853 38.6203 170.877 36.9079C170.326 36.773 169.72 36.5716 169.189 36.381C168.507 36.1361 167.838 35.8552 167.185 35.5393C165.945 34.9366 164.768 34.2102 163.671 33.3709C157.429 28.5799 153.551 19.442 157.624 12" fill="#0868AC"/>
<path d="M21.5 82.3912L13 10H88L79.3906 82.3912L51 90.5L21.5 82.3912Z" fill="#F7DF1E"/>
<path d="M75.9085 43.744H63.0561V37.0742H76.7211L77.5302 30.5605H53.5215V50.2572H65.9551L64.8569 58.7045L53.5217 60.1783V66.9683L73.3813 63.7411L75.9085 43.744Z" fill="white"/>
<path d="M48.5377 30.5605H28.1736L29.0192 37.0768L39.3834 37.077V59.2397L34.3038 58.7089L33.6543 53.5144C33.6543 53.5144 27.5515 53.5144 24.5 53.5144L25.7774 63.7411C48.5377 66.9683 25.8636 63.7387 48.5377 66.9683V30.5605Z" fill="white"/>
</svg>
