<svg width="75" height="75" viewBox="0 0 75 75" fill="none" xmlns="http://www.w3.org/2000/svg">
<g clip-path="url(#clip0_1173_7)">
<path d="M53.7279 29.8594C49.7779 12.4219 40.4404 6.69063 39.4373 4.5C38.5623 3.26875 37.7811 1.51875 37.1404 0C37.0279 1.54688 36.9686 2.14063 35.5061 3.7C33.2467 5.46875 21.6373 15.2063 20.6936 35.0125C19.8123 53.4875 34.0373 64.4969 35.9686 65.9L36.1873 66.0563C36.5891 69.0305 36.9329 72.0123 37.2186 75H38.7217C39.0808 71.7759 39.6129 68.5733 40.3154 65.4063C41.6186 64.4813 42.2029 63.9594 42.9717 63.2406C46.6125 59.873 49.5059 55.7787 51.4648 51.2225C53.4237 46.6663 54.4044 41.7497 54.3436 36.7906C54.3748 34.2469 54.0217 31.5969 53.7279 29.8594ZM37.0529 55.4688C37.0529 55.4688 37.0529 29.5594 37.9123 29.5625C38.5779 29.5625 39.4436 62.9844 39.4436 62.9844C38.2529 62.8438 37.0529 57.4844 37.0529 55.4688Z" fill="#808080"/>
</g>
<defs>
<clipPath id="clip0_1173_7">
<rect width="75" height="75" fill="white"/>
</clipPath>
</defs>
</svg>
