<svg width="76" height="75" viewBox="0 0 76 75" fill="none" xmlns="http://www.w3.org/2000/svg">
<g clip-path="url(#clip0_1185_26)">
<mask id="mask0_1185_26" style="mask-type:luminance" maskUnits="userSpaceOnUse" x="0" y="0" width="76" height="75">
<path d="M75.5 0H0.5V75H75.5V0Z" fill="white"/>
</mask>
<g mask="url(#mask0_1185_26)">
<path d="M54.2279 29.8594C50.2779 12.4219 40.9404 6.69063 39.9373 4.5C39.0623 3.26875 38.2811 1.51875 37.6404 0C37.5279 1.54688 37.4686 2.14063 36.0061 3.7C33.7467 5.46875 22.1373 15.2063 21.1936 35.0125C20.3123 53.4875 34.5373 64.4969 36.4686 65.9L36.6873 66.0563C37.0891 69.0305 37.4329 72.0123 37.7186 75H39.2217C39.5808 71.7759 40.1129 68.5733 40.8154 65.4063C42.1186 64.4813 42.7029 63.9594 43.4717 63.2406C47.1125 59.873 50.0059 55.7787 51.9648 51.2225C53.9237 46.6663 54.9044 41.7497 54.8436 36.7906C54.8748 34.2469 54.5217 31.5969 54.2279 29.8594ZM37.5529 55.4688C37.5529 55.4688 37.5529 29.5594 38.4123 29.5625C39.0779 29.5625 39.9436 62.9844 39.9436 62.9844C38.7529 62.8438 37.5529 57.4844 37.5529 55.4688Z" fill="#4CA74B"/>
</g>
</g>
<defs>
<clipPath id="clip0_1185_26">
<rect width="75" height="75" fill="white" transform="translate(0.5)"/>
</clipPath>
</defs>
</svg>
