<svg width="200" height="100" viewBox="0 0 200 100" fill="none" xmlns="http://www.w3.org/2000/svg">
<path d="M150.034 70.6927H125.851L120.91 86.7046C120.78 87.3178 120.26 87.7266 119.675 87.6583H107.453C106.738 87.6583 106.543 87.2495 106.738 86.4319L127.671 23.2708C127.866 22.5899 128.061 21.8399 128.321 21.0223C128.581 19.5915 128.711 18.0929 128.711 16.5937C128.646 16.2533 128.906 15.9121 129.231 15.8445H146.068C146.589 15.8445 146.848 16.0489 146.914 16.3893L170.642 86.5686C170.836 87.3178 170.642 87.6583 169.992 87.6583H156.405C155.95 87.7266 155.495 87.3861 155.365 86.9089L150.034 70.6927ZM129.621 56.8615H146.133C145.743 55.4307 145.223 53.7271 144.638 51.9558C144.053 50.1162 143.468 48.1404 142.883 46.0964C142.233 43.984 141.648 41.9399 140.998 39.8275C140.348 37.7157 139.763 35.7395 139.242 33.7637C138.722 31.8564 138.267 30.0844 137.813 28.4492H137.682C137.097 31.3792 136.382 34.3092 135.472 37.2387C134.497 40.5091 133.522 43.9156 132.482 47.3228C131.642 50.5387 130.688 53.7204 129.621 56.8615ZM185.139 27.7676C182.993 27.836 180.913 26.95 179.353 25.3832C177.858 23.6796 177.078 21.4311 177.143 19.1149C177.078 16.7981 177.923 14.618 179.483 13.0505C181.043 11.4836 183.124 10.666 185.269 10.666C187.804 10.666 189.755 11.4836 191.184 13.0505C192.625 14.7024 193.395 16.8779 193.33 19.1149C193.395 21.4311 192.615 23.6796 191.055 25.3832C189.56 27.0184 187.349 27.9044 185.139 27.7676ZM177.858 86.9089V34.4453C177.858 33.7637 178.118 33.4909 178.703 33.4909H191.574C192.159 33.4909 192.42 33.8321 192.42 34.4453V86.9089C192.42 87.6583 192.159 87.9994 191.574 87.9994H178.833C178.183 87.9994 177.858 87.5905 177.858 86.9089Z" fill="#FF9A00"/>
<path d="M1.16895 83.9576V14.4855C1.16895 14.0126 1.37149 13.743 1.8443 13.743C2.99183 13.743 4.07227 13.743 5.62488 13.6752C7.24522 13.6075 8.93329 13.6075 10.7562 13.5404C12.5791 13.4727 14.5367 13.4727 16.6299 13.405C18.7224 13.3379 20.7479 13.3379 22.7732 13.3379C28.3096 13.3379 32.9004 14.0126 36.6816 15.4304C40.0708 16.5815 43.1611 18.4727 45.7283 20.9668C47.9037 23.1495 49.5847 25.7743 50.657 28.6635C51.6697 31.4991 52.2097 34.4023 52.2097 37.4406C52.2097 43.2466 50.8596 48.0398 48.1588 51.8211C45.458 55.6016 41.6775 58.4372 37.2892 60.0576C32.6979 61.7456 27.6343 62.3532 22.0986 62.3532C20.4782 62.3532 19.3978 62.3532 18.7224 62.2855C18.0476 62.2179 17.102 62.2178 15.8198 62.2178V83.8899C15.8868 84.3627 15.5495 84.7678 15.0767 84.8355H1.97911C1.43922 84.8355 1.16895 84.5652 1.16895 83.9576ZM15.8868 26.7728V49.4576C16.8324 49.5254 17.7096 49.5931 18.5199 49.5931H22.0986C24.7316 49.5931 27.3647 49.188 29.8623 48.3778C32.0231 47.7702 33.9131 46.4872 35.3987 44.7991C36.8164 43.1118 37.4917 40.816 37.4917 37.8456C37.5552 35.7356 37.0164 33.6514 35.9385 31.8364C34.7909 30.0812 33.1707 28.7311 31.213 27.988C28.7147 26.9754 26.0139 26.5703 23.246 26.638C21.491 26.638 19.9376 26.638 18.6554 26.7058C17.3046 26.638 16.3596 26.7058 15.8868 26.7728ZM94.3386 45.3396C92.3131 44.2592 90.1528 43.5168 87.8571 43.044C85.3589 42.504 82.8613 42.166 80.2954 42.166C78.9453 42.099 77.5275 42.3015 76.2445 42.6388C75.3673 42.8415 74.6242 43.3143 74.1519 43.989C73.8139 44.5295 73.6114 45.2042 73.6114 45.8119C73.6114 46.4195 73.8817 47.0271 74.2867 47.5676C74.8945 48.31 75.7046 48.9178 76.5825 49.3906C78.1477 50.2012 79.747 50.9446 81.3758 51.6186C85.0215 52.8338 88.5324 54.5212 91.7731 56.5466C94.0011 57.9644 95.824 59.8551 97.1064 62.1507C98.1868 64.311 98.7267 66.6738 98.6596 69.1043C98.7267 72.2779 97.7818 75.4508 96.0266 78.0839C94.1434 80.779 91.5156 82.867 88.4647 84.0924C85.1563 85.5103 81.1055 86.2534 76.2445 86.2534C73.1393 86.2534 70.1011 85.9831 67.063 85.3755C64.6818 84.9642 62.366 84.2378 60.1765 83.2152C59.7037 82.945 59.3664 82.4722 59.4334 81.9322V70.1847C59.4334 69.9822 59.5012 69.7119 59.7037 69.5771C59.9062 69.4423 60.1088 69.5094 60.3113 69.6448C62.9444 71.1975 65.7122 72.2779 68.6833 72.9526C71.2486 73.6279 73.9494 73.9654 76.6495 73.9654C79.2155 73.9654 81.0385 73.6279 82.2537 73.0203C83.3335 72.5475 84.0766 71.4 84.0766 70.1847C84.0766 69.2398 83.5361 68.3619 82.4562 67.4839C81.3758 66.6067 79.1478 65.594 75.8394 64.311C72.4458 63.1151 69.223 61.481 66.2528 59.4499C64.1372 57.942 62.3844 55.9815 61.1216 53.7111C60.041 51.5508 59.5012 49.188 59.5689 46.8246C59.5689 43.9219 60.379 41.1534 61.864 38.6558C63.5521 35.955 66.0502 33.7947 68.953 32.444C72.1265 30.8236 76.1097 30.0812 80.903 30.0812C83.6715 30.0812 86.5071 30.2838 89.275 30.6888C91.3003 30.9591 93.258 31.4991 95.081 32.2415C95.3512 32.3092 95.6215 32.5795 95.7563 32.8491C95.824 33.1194 95.8911 33.3896 95.8911 33.6592V44.6643C95.8911 44.9346 95.7563 45.2042 95.5538 45.3396C94.9462 45.4744 94.6088 45.4744 94.3386 45.3396Z" fill="#31A8FF"/>
</svg>
