<svg width="28" height="28" viewBox="0 0 28 28" fill="none" xmlns="http://www.w3.org/2000/svg">
<path d="M6.76733 2.80078C4.57406 2.80078 2.80078 4.6197 2.80078 6.8694V21.1322C2.80078 23.3819 4.57406 25.2008 6.76733 25.2008H21.2342C23.4275 25.2008 25.2008 23.3819 25.2008 21.1322V6.8694C25.2008 4.6197 23.4275 2.80078 21.2342 2.80078H6.76733ZM10.8275 8.49663C11.5928 8.49663 12.2275 8.59211 12.7501 8.79314C13.2186 8.95644 13.6459 9.22468 14.0008 9.5784C14.3015 9.88786 14.5339 10.26 14.6822 10.6695C14.8222 11.0716 14.8966 11.4831 14.8966 11.9139C14.8966 12.7371 14.7099 13.4168 14.3366 13.9529C13.9635 14.4888 13.441 14.891 12.8342 15.1208C12.1995 15.3602 11.4995 15.4462 10.7342 15.4462C10.5102 15.4462 10.3606 15.4462 10.2673 15.4367C10.1741 15.4272 10.0433 15.4272 9.86606 15.4272V18.5C9.87533 18.5669 9.82878 18.6246 9.76351 18.6341H7.95278C7.87823 18.6341 7.84113 18.5955 7.84113 18.5093V8.65924C7.84113 8.59229 7.86913 8.5537 7.93441 8.5537C8.09313 8.5537 8.24241 8.5537 8.45696 8.54437C8.68096 8.53468 8.91423 8.53504 9.16623 8.52534C9.41823 8.51583 9.68896 8.51565 9.97823 8.50614C10.2677 8.49645 10.5475 8.49663 10.8275 8.49663ZM11.0358 10.382C10.9881 10.381 10.9404 10.3811 10.8928 10.3823C10.6502 10.3823 10.4355 10.3825 10.2581 10.3922C10.0715 10.3825 9.94096 10.392 9.87568 10.4015V13.6179C10.0062 13.6276 10.1273 13.637 10.2393 13.637H10.7342C11.0982 13.637 11.4622 13.5795 11.8075 13.4647C12.1062 13.3785 12.3675 13.1965 12.5728 12.9572C12.7688 12.7178 12.8622 12.3926 12.8622 11.9713C12.8708 11.6723 12.7964 11.3768 12.6477 11.1195C12.489 10.8707 12.2648 10.679 11.9941 10.5738C11.6918 10.4482 11.3683 10.3886 11.0358 10.382ZM18.8635 10.8707C19.2462 10.8707 19.6382 10.8991 20.0208 10.9565C20.3008 10.9947 20.5713 11.0717 20.8233 11.1771C20.8608 11.1866 20.8981 11.2247 20.9166 11.2629C20.9261 11.3011 20.9355 11.3395 20.9355 11.3778V12.9382C20.9356 12.9568 20.9314 12.9751 20.9234 12.9917C20.9153 13.0084 20.9035 13.0228 20.889 13.0339C20.805 13.0531 20.7582 13.0531 20.721 13.0339C20.441 12.8808 20.1421 12.7756 19.8246 12.7087C19.4793 12.632 19.1341 12.5839 18.7795 12.5839C18.5928 12.5742 18.3966 12.6033 18.2193 12.651C18.0979 12.6798 17.9953 12.7469 17.9301 12.8426C17.8835 12.9192 17.8555 13.0149 17.8555 13.101C17.8555 13.1872 17.893 13.2733 17.949 13.3498C18.033 13.4551 18.1448 13.5415 18.2661 13.6086C18.4825 13.7233 18.7036 13.8285 18.9288 13.924C19.4328 14.0963 19.9181 14.3359 20.3661 14.6231C20.6741 14.8241 20.9261 15.0922 21.1033 15.4177C21.2535 15.723 21.3273 16.0618 21.3182 16.4036C21.3258 16.8561 21.1987 17.3002 20.9539 17.6767C20.6936 18.0588 20.3305 18.3548 19.9088 18.5285C19.4513 18.7295 18.8913 18.8349 18.2193 18.8349C17.7899 18.8349 17.3702 18.7967 16.9502 18.7105C16.621 18.6522 16.3009 18.5492 15.9982 18.4041C15.933 18.3659 15.8861 18.2988 15.8953 18.2221V16.5567C15.8953 16.528 15.9046 16.4896 15.9326 16.4705C15.9606 16.4513 15.9886 16.4612 16.0166 16.4802C16.3761 16.6977 16.7667 16.8561 17.1741 16.9494C17.5288 17.0451 17.9022 17.0928 18.2757 17.0928C18.6302 17.0928 18.8822 17.0449 19.0502 16.9587C19.1995 16.8918 19.3021 16.729 19.3021 16.5567C19.3021 16.4228 19.2275 16.298 19.0781 16.1735C18.9288 16.0491 18.6208 15.9057 18.1635 15.7239C17.6943 15.5544 17.2487 15.3227 16.8381 15.0346C16.5456 14.8209 16.3033 14.5429 16.1288 14.221C15.9798 13.9187 15.9061 13.5832 15.9142 13.2446C15.9142 12.833 16.0261 12.4405 16.2313 12.0864C16.4646 11.7035 16.8102 11.3971 17.2117 11.2058C17.6502 10.9761 18.2006 10.8707 18.8635 10.8707Z" fill="#808080"/>
</svg>
