<svg width="75" height="75" viewBox="0 0 75 75" fill="none" xmlns="http://www.w3.org/2000/svg">
<path d="M0.876953 62.9687V10.8646C0.876953 10.5099 1.02886 10.3077 1.38347 10.3077C2.24412 10.3077 3.05445 10.3077 4.21891 10.2569C5.43417 10.2061 6.70022 10.2061 8.06739 10.1558C9.43455 10.105 10.9028 10.105 12.4727 10.0542C14.0421 10.0039 15.5612 10.0039 17.0802 10.0039C21.2325 10.0039 24.6756 10.5099 27.5115 11.5733C30.0534 12.4366 32.3711 13.855 34.2965 15.7256C35.9281 17.3626 37.1888 19.3312 37.9931 21.4981C38.7526 23.6248 39.1576 25.8022 39.1576 28.0809C39.1576 32.4354 38.145 36.0303 36.1194 38.8663C34.0938 41.7017 31.2584 43.8284 27.9672 45.0437C24.5237 46.3097 20.726 46.7654 16.5742 46.7654C15.3589 46.7654 14.5486 46.7654 14.0421 46.7146C13.536 46.6639 12.8268 46.6638 11.8651 46.6638V62.9179C11.9154 63.2725 11.6624 63.5763 11.3078 63.6271H1.48458C1.07966 63.6271 0.876953 63.4244 0.876953 62.9687ZM11.9154 20.0801V37.0937C12.6246 37.1445 13.2825 37.1953 13.8902 37.1953H16.5742C18.549 37.1953 20.5238 36.8915 22.397 36.2838C24.0176 35.8281 25.4351 34.8659 26.5493 33.5998C27.6126 32.3343 28.1191 30.6125 28.1191 28.3847C28.1667 26.8022 27.7626 25.239 26.9542 23.8778C26.0935 22.5614 24.8783 21.5488 23.41 20.9915C21.5363 20.232 19.5107 19.9282 17.4348 19.979C16.1185 19.979 14.9535 19.979 13.9918 20.0298C12.9787 19.979 12.27 20.0298 11.9154 20.0801ZM70.7543 34.0052C69.2352 33.1949 67.615 32.6381 65.8932 32.2835C64.0195 31.8785 62.1463 31.625 60.2219 31.625C59.2093 31.5747 58.146 31.7266 57.1837 31.9796C56.5258 32.1316 55.9685 32.4862 55.6143 32.9922C55.3608 33.3976 55.2089 33.9036 55.2089 34.3594C55.2089 34.8151 55.4116 35.2708 55.7154 35.6762C56.1712 36.233 56.7788 36.6888 57.4372 37.0434C58.6111 37.6514 59.8106 38.2089 61.0322 38.7144C63.7665 39.6258 66.3997 40.8914 68.8302 42.4104C70.5012 43.4738 71.8684 44.8918 72.8302 46.6135C73.6405 48.2337 74.0454 50.0058 73.9951 51.8287C74.0454 54.2089 73.3367 56.5886 72.0203 58.5634C70.6079 60.5847 68.6371 62.1507 66.3489 63.0698C63.8676 64.1332 60.8295 64.6905 57.1837 64.6905C54.8548 64.6905 52.5762 64.4878 50.2976 64.0321C48.5117 63.7236 46.7748 63.1788 45.1327 62.4119C44.7781 62.2092 44.5251 61.8546 44.5754 61.4496V52.639C44.5754 52.4871 44.6262 52.2844 44.7781 52.1833C44.93 52.0822 45.0819 52.1325 45.2338 52.2341C47.2086 53.3986 49.2845 54.2089 51.5128 54.7149C53.4368 55.2214 55.4624 55.4745 57.4875 55.4745C59.412 55.4745 60.7792 55.2214 61.6906 54.7657C62.5005 54.4111 63.0578 53.5505 63.0578 52.639C63.0578 51.9303 62.6524 51.2719 61.8425 50.6134C61.0322 49.9555 59.3612 49.196 56.8799 48.2337C54.3347 47.3368 51.9176 46.1112 49.6899 44.5879C48.1032 43.457 46.7886 41.9866 45.8415 40.2838C45.0311 38.6636 44.6262 36.8915 44.677 35.1189C44.677 32.9419 45.2846 30.8655 46.3983 28.9923C47.6644 26.9667 49.538 25.3465 51.7151 24.3335C54.0952 23.1182 57.0826 22.5614 60.6776 22.5614C62.754 22.5614 64.8807 22.7133 66.9566 23.0171C68.4756 23.2198 69.9439 23.6248 71.3111 24.1816C71.5138 24.2324 71.7165 24.4351 71.8176 24.6373C71.8684 24.84 71.9187 25.0427 71.9187 25.2449V33.4987C71.9187 33.7014 71.8176 33.9036 71.6657 34.0052C71.21 34.1063 70.957 34.1063 70.7543 34.0052Z" fill="#808080"/>
</svg>
