<svg width="76" height="75" viewBox="0 0 76 75" fill="none" xmlns="http://www.w3.org/2000/svg">
<path d="M1.37695 62.9687V10.8646C1.37695 10.5099 1.52886 10.3077 1.88347 10.3077C2.74412 10.3077 3.55445 10.3077 4.71891 10.2569C5.93417 10.2061 7.20022 10.2061 8.56739 10.1558C9.93455 10.105 11.4028 10.105 12.9727 10.0542C14.5421 10.0039 16.0612 10.0039 17.5802 10.0039C21.7325 10.0039 25.1756 10.5099 28.0115 11.5733C30.5534 12.4366 32.8711 13.855 34.7965 15.7256C36.4281 17.3626 37.6888 19.3312 38.4931 21.4981C39.2526 23.6248 39.6576 25.8022 39.6576 28.0809C39.6576 32.4354 38.645 36.0303 36.6194 38.8663C34.5938 41.7017 31.7584 43.8284 28.4672 45.0437C25.0237 46.3097 21.226 46.7654 17.0742 46.7654C15.8589 46.7654 15.0486 46.7654 14.5421 46.7146C14.036 46.6639 13.3268 46.6638 12.3651 46.6638V62.9179C12.4154 63.2725 12.1624 63.5763 11.8078 63.6271H1.98458C1.57966 63.6271 1.37695 63.4244 1.37695 62.9687ZM12.4154 20.0801V37.0937C13.1246 37.1445 13.7825 37.1953 14.3902 37.1953H17.0742C19.049 37.1953 21.0238 36.8915 22.897 36.2838C24.5176 35.8281 25.9351 34.8659 27.0493 33.5998C28.1126 32.3343 28.6191 30.6125 28.6191 28.3847C28.6667 26.8022 28.2626 25.239 27.4542 23.8778C26.5935 22.5614 25.3783 21.5488 23.91 20.9915C22.0363 20.232 20.0107 19.9282 17.9348 19.979C16.6185 19.979 15.4535 19.979 14.4918 20.0298C13.4787 19.979 12.77 20.0298 12.4154 20.0801ZM71.2543 34.0052C69.7352 33.1949 68.115 32.6381 66.3932 32.2835C64.5195 31.8785 62.6463 31.625 60.7219 31.625C59.7093 31.5747 58.646 31.7266 57.6837 31.9796C57.0258 32.1316 56.4685 32.4862 56.1143 32.9922C55.8608 33.3976 55.7089 33.9036 55.7089 34.3594C55.7089 34.8151 55.9116 35.2708 56.2154 35.6762C56.6712 36.233 57.2788 36.6888 57.9372 37.0434C59.1111 37.6514 60.3106 38.2089 61.5322 38.7144C64.2665 39.6258 66.8997 40.8914 69.3302 42.4104C71.0012 43.4738 72.3684 44.8918 73.3302 46.6135C74.1405 48.2337 74.5454 50.0058 74.4951 51.8287C74.5454 54.2089 73.8367 56.5886 72.5203 58.5634C71.1079 60.5847 69.1371 62.1507 66.8489 63.0698C64.3676 64.1332 61.3295 64.6905 57.6837 64.6905C55.3548 64.6905 53.0762 64.4878 50.7976 64.0321C49.0117 63.7236 47.2748 63.1788 45.6327 62.4119C45.2781 62.2092 45.0251 61.8546 45.0754 61.4496V52.639C45.0754 52.4871 45.1262 52.2844 45.2781 52.1833C45.43 52.0822 45.5819 52.1325 45.7338 52.2341C47.7086 53.3986 49.7845 54.2089 52.0128 54.7149C53.9368 55.2214 55.9624 55.4745 57.9875 55.4745C59.912 55.4745 61.2792 55.2214 62.1906 54.7657C63.0005 54.4111 63.5578 53.5505 63.5578 52.639C63.5578 51.9303 63.1524 51.2719 62.3425 50.6134C61.5322 49.9555 59.8612 49.196 57.3799 48.2337C54.8347 47.3368 52.4176 46.1112 50.1899 44.5879C48.6032 43.457 47.2886 41.9866 46.3415 40.2838C45.5311 38.6636 45.1262 36.8915 45.177 35.1189C45.177 32.9419 45.7846 30.8655 46.8983 28.9923C48.1644 26.9667 50.038 25.3465 52.2151 24.3335C54.5952 23.1182 57.5826 22.5614 61.1776 22.5614C63.254 22.5614 65.3807 22.7133 67.4566 23.0171C68.9756 23.2198 70.4439 23.6248 71.8111 24.1816C72.0138 24.2324 72.2165 24.4351 72.3176 24.6373C72.3684 24.84 72.4187 25.0427 72.4187 25.2449V33.4987C72.4187 33.7014 72.3176 33.9036 72.1657 34.0052C71.71 34.1063 71.457 34.1063 71.2543 34.0052Z" fill="#31A8FF"/>
</svg>
