<svg width="101" height="100" viewBox="0 0 101 100" fill="none" xmlns="http://www.w3.org/2000/svg">
<g clip-path="url(#clip0_1185_32)">
<path fill-rule="evenodd" clip-rule="evenodd" d="M35.9333 12.2475C33.2667 11.4742 31.3 11.6808 29.8667 12.4608C28.4267 13.2342 27.1733 14.7742 26.36 17.4275C25.5467 20.1008 25.2733 23.6675 25.6667 27.9742C25.7333 28.6742 25.8133 29.3875 25.9133 30.1142C29.591 29.191 33.3227 28.4986 37.0867 28.0408C39.658 24.4099 42.4994 20.978 45.5867 17.7742C45.4407 17.6555 45.294 17.5377 45.1467 17.4208C41.76 14.7408 38.6133 13.0208 35.9333 12.2475ZM50.5 13.1808C50.1 12.8475 49.6933 12.5142 49.2867 12.1942C45.4733 9.18085 41.5667 6.93418 37.7933 5.84085C33.9933 4.74085 30.1067 4.74085 26.6867 6.60085C23.2667 8.45418 21.1333 11.7142 19.9867 15.4942C18.84 19.2542 18.5867 23.7475 19.0267 28.5942C19.1333 29.7275 19.2733 30.8875 19.46 32.0808C18.3267 32.4808 17.2333 32.9142 16.1933 33.3608C11.72 35.2742 7.88667 37.6408 5.12667 40.4408C2.35333 43.2475 0.5 46.6675 0.5 50.5608C0.5 54.4475 2.35333 57.8742 5.12667 60.6875C7.88667 63.4875 11.72 65.8475 16.1933 67.7675C17.2333 68.2142 18.3267 68.6409 19.46 69.0475C19.2803 70.2051 19.1358 71.3678 19.0267 72.5342C18.5867 77.3742 18.84 81.8675 19.9867 85.6342C21.1333 89.4142 23.2667 92.6742 26.6867 94.5209C30.1067 96.3742 34 96.3809 37.7933 95.2809C41.5667 94.1809 45.4733 91.9475 49.2867 88.9275L50.5 87.9342C50.9 88.2742 51.3067 88.6009 51.7133 88.9275C55.5267 91.9409 59.4333 94.1809 63.2067 95.2809C67 96.3809 70.8933 96.3742 74.3133 94.5209C77.7333 92.6742 79.8667 89.4142 81.0133 85.6342C82.16 81.8742 82.4133 77.3742 81.9733 72.5342C81.8645 71.3678 81.72 70.2051 81.54 69.0475C82.6423 68.6559 83.7318 68.229 84.8067 67.7675C89.28 65.8475 93.1133 63.4808 95.8733 60.6875C98.6467 57.8742 100.5 54.4475 100.5 50.5542C100.5 46.6742 98.6467 43.2475 95.8733 40.4342C93.1133 37.6342 89.28 35.2675 84.8067 33.3542C83.7309 32.8947 82.6415 32.4678 81.54 32.0742C81.72 30.8808 81.8667 29.7208 81.9733 28.5875C82.4133 23.7408 82.16 19.2542 81.0133 15.4875C79.8667 11.7075 77.7333 8.44751 74.3133 6.59418C70.9 4.74085 67 4.74085 63.2067 5.84085C59.4333 6.93418 55.5267 9.17418 51.7133 12.1942L50.5 13.1808ZM50.5 22.2808C49 23.8142 47.5 25.5008 46.02 27.3142C49.0055 27.196 51.9945 27.196 54.98 27.3142C53.5619 25.5709 52.0671 23.8915 50.5 22.2808ZM63.9133 28.0408C61.18 24.2142 58.3133 20.7608 55.4133 17.7742L55.8467 17.4208C59.2467 14.7408 62.38 13.0208 65.0667 12.2475C67.7267 11.4742 69.7 11.6808 71.1333 12.4608C72.5733 13.2342 73.8267 14.7742 74.6333 17.4275C75.4467 20.1008 75.7267 23.6675 75.3333 27.9742C75.2667 28.6742 75.1867 29.3875 75.0867 30.1075C71.4089 29.1866 67.6772 28.4964 63.9133 28.0408ZM60.16 34.3342C53.7339 33.7358 47.2661 33.7358 40.84 34.3342C37.407 39.4693 34.4375 44.8996 31.9667 50.5608C34.4378 56.2185 37.405 61.6464 40.8333 66.7809C47.2639 67.3798 53.7361 67.3798 60.1667 66.7809C63.5969 61.6475 66.5641 56.2195 69.0333 50.5608C66.5626 44.9008 63.5888 39.4707 60.16 34.3342ZM72.3267 41.9208C71.2231 39.7599 70.0514 37.6343 68.8133 35.5475C70.5467 35.8808 72.22 36.2542 73.8267 36.6675C73.4067 38.3742 72.9067 40.1342 72.3267 41.9208ZM72.3267 59.1942C71.2249 61.3583 70.0531 63.4861 68.8133 65.5742C70.5467 65.2409 72.22 64.8675 73.8267 64.4475C73.3882 62.6794 72.8879 60.9272 72.3267 59.1942ZM80.1933 62.4409C79.1576 58.3965 77.8479 54.4274 76.2733 50.5608C77.9133 46.4942 79.2267 42.5008 80.1933 38.6808C80.88 38.9342 81.5467 39.2075 82.1933 39.4808C86.1667 41.1875 89.1733 43.1275 91.1333 45.1142C93.08 47.0875 93.84 48.9275 93.84 50.5608C93.84 52.1942 93.08 54.0275 91.1333 56.0008C89.1733 57.9942 86.1667 59.9342 82.1933 61.6409C81.5325 61.9219 80.8657 62.1886 80.1933 62.4409ZM75.0933 71.0075C71.416 71.9321 67.6842 72.6246 63.92 73.0809C61.1867 76.9075 58.32 80.3542 55.42 83.3475L55.86 83.6942C59.2467 86.3809 62.3933 88.0942 65.0733 88.8742C67.7333 89.6475 69.7067 89.4409 71.14 88.6609C72.58 87.8809 73.8333 86.3409 74.64 83.6875C75.46 81.0209 75.7333 77.4475 75.34 73.1408C75.2732 72.428 75.191 71.7168 75.0933 71.0075ZM50.5 78.8409C52 77.3075 53.5 75.6209 54.98 73.8075C51.9945 73.926 49.0055 73.926 46.02 73.8075C47.5 75.6209 49 77.3009 50.5 78.8409ZM32.1933 65.5742C30.9541 63.4858 29.7823 61.358 28.68 59.1942C28.1 60.9942 27.6 62.7408 27.18 64.4475C28.78 64.8675 30.46 65.2409 32.1933 65.5742ZM25.9133 71.0075C29.5906 71.9321 33.3225 72.6246 37.0867 73.0809C39.82 76.9075 42.68 80.3542 45.5867 83.3475C45.4407 83.464 45.294 83.5795 45.1467 83.6942C41.76 86.3809 38.6133 88.0942 35.9333 88.8742C33.2667 89.6475 31.3 89.4409 29.86 88.6609C28.42 87.8809 27.1733 86.3409 26.36 83.6875C25.5467 81.0209 25.2733 77.4475 25.6667 73.1408C25.7335 72.428 25.8158 71.7168 25.9133 71.0075ZM20.8133 62.4409C21.78 58.6142 23.0867 54.6275 24.7333 50.5608C23.1587 46.6943 21.8491 42.7252 20.8133 38.6808C20.1417 38.9348 19.4749 39.2016 18.8133 39.4808C14.84 41.1875 11.8333 43.1275 9.87333 45.1142C7.92667 47.0875 7.16667 48.9275 7.16667 50.5608C7.16667 52.1942 7.92667 54.0275 9.87333 56.0008C11.8333 57.9942 14.84 59.9342 18.8133 61.6409C19.46 61.9142 20.1267 62.1809 20.8133 62.4409ZM27.18 36.6742C27.6 38.3742 28.1 40.1342 28.68 41.9208C29.783 39.7596 30.9548 37.6341 32.1933 35.5475C30.46 35.8808 28.7867 36.2542 27.18 36.6742ZM40.5 50.5608C40.5 47.9087 41.5536 45.3651 43.4289 43.4898C45.3043 41.6144 47.8478 40.5608 50.5 40.5608C53.1522 40.5608 55.6957 41.6144 57.5711 43.4898C59.4464 45.3651 60.5 47.9087 60.5 50.5608C60.5 53.213 59.4464 55.7566 57.5711 57.6319C55.6957 59.5073 53.1522 60.5608 50.5 60.5608C47.8478 60.5608 45.3043 59.5073 43.4289 57.6319C41.5536 55.7566 40.5 53.213 40.5 50.5608ZM50.5 47.2275C49.6159 47.2275 48.7681 47.5787 48.143 48.2038C47.5179 48.8289 47.1667 49.6768 47.1667 50.5608C47.1667 51.4449 47.5179 52.2927 48.143 52.9179C48.7681 53.543 49.6159 53.8942 50.5 53.8942C51.3841 53.8942 52.2319 53.543 52.857 52.9179C53.4821 52.2927 53.8333 51.4449 53.8333 50.5608C53.8333 49.6768 53.4821 48.8289 52.857 48.2038C52.2319 47.5787 51.3841 47.2275 50.5 47.2275Z" fill="#00D8FF"/>
</g>
<defs>
<clipPath id="clip0_1185_32">
<rect width="100" height="100" fill="white" transform="translate(0.5)"/>
</clipPath>
</defs>
</svg>
