<svg width="76" height="75" viewBox="0 0 76 75" fill="none" xmlns="http://www.w3.org/2000/svg">
<g clip-path="url(#clip0_1167_30)">
<path d="M13 -0.5C9.68479 -0.5 6.50537 0.816961 4.16117 3.16117C1.81696 5.50537 0.5 8.68479 0.5 12V62C0.5 65.3152 1.81696 68.4946 4.16117 70.8388C6.50537 73.183 9.68479 74.5 13 74.5H63C66.3152 74.5 69.4946 73.183 71.8388 70.8388C74.183 68.4946 75.5 65.3152 75.5 62V12C75.5 8.68479 74.183 5.50537 71.8388 3.16117C69.4946 0.816961 66.3152 -0.5 63 -0.5H13ZM43.5583 53.8958C46.5583 56.3125 49.55 57.5 52.5417 57.4708C54.375 57.4708 55.7833 57.1375 56.7583 56.4625C57.2136 56.167 57.584 55.758 57.8331 55.2758C58.0823 54.7936 58.2015 54.2548 58.1792 53.7125C58.1852 53.121 58.0615 52.5354 57.8167 51.9969C57.572 51.4585 57.2121 50.9802 56.7625 50.5958C55.7833 49.7417 53.9333 48.8875 51.2125 48.0292C47.9458 47.0833 45.4208 45.8625 43.65 44.3625C41.9083 42.8625 41.025 40.7708 40.9917 38.0833C40.9917 35.5458 42.0917 33.425 44.2917 31.7125C46.4333 30.0042 49.1667 29.1458 52.5 29.1458C57.1417 29.1458 60.8708 30.275 63.6792 32.5375L60.4708 37.5333C59.3157 36.6348 57.9904 35.98 56.575 35.6083C55.303 35.1829 53.9743 34.9511 52.6333 34.9208C51.05 34.9208 49.7792 35.2125 48.8292 35.7917C47.8833 36.375 47.4125 37.1375 47.4125 38.0833C47.4125 39.125 47.9917 40.0083 49.15 40.7417C50.3167 41.4458 52.3 42.225 55.1083 43.0792C58.5 44.0875 60.9167 45.4333 62.35 47.1125C63.7875 48.7917 64.5042 50.9333 64.5042 53.5292C64.5042 56.1875 63.4833 58.4792 61.4333 60.4042C59.4167 62.3 56.4833 63.2917 52.6333 63.3833C47.5917 63.3833 43.375 61.8708 39.9833 58.8458L43.5583 53.8958ZM20.5167 56.5542C21.4958 57.1667 22.6708 57.4708 24.0458 57.4708C25.4833 57.4708 26.6708 57.0583 27.6208 56.2333C28.5667 55.3792 29.0417 53.8958 29.0417 51.7875V29.6958H35.2292V52.9792C35.1375 56.5833 34.1 59.1833 32.1125 60.7708C31.0281 61.693 29.7638 62.3797 28.4 62.7875C27.1368 63.1724 25.8247 63.3731 24.5042 63.3833C22.2125 63.3833 20.1792 62.9875 18.4083 62.1917C16.5125 61.3375 14.925 59.825 13.6417 57.6542L17.95 54.125C18.7417 55.1958 19.6 56.0042 20.5167 56.5542Z" fill="#808080"/>
</g>
<defs>
<clipPath id="clip0_1167_30">
<rect width="76" height="75" fill="white"/>
</clipPath>
</defs>
</svg>
