<svg width="75" height="75" viewBox="0 0 75 75" fill="none" xmlns="http://www.w3.org/2000/svg">
<g clip-path="url(#clip0_1174_9)">
<path d="M32.9062 33.5313C32.5937 32.5625 32.3125 31.625 32 30.6563C31.6875 29.6875 31.4063 28.7813 31.1563 27.875C30.9063 27 30.6875 26.1875 30.4688 25.4375H30.4062C30.125 26.7813 29.7813 28.125 29.3438 29.4688C28.875 30.9688 28.4063 32.5313 27.9063 34.0938C27.4688 35.6875 27 37.1563 26.5312 38.4688H34.4687C34.2812 37.8094 34.0313 37.0313 33.75 36.2156C33.4688 35.375 33.1875 34.4688 32.9062 33.5313ZM61.7188 0.9375H13.2812C5.9375 0.9375 0 6.875 0 14.2188V60.7813C0 68.125 5.9375 74.0625 13.2812 74.0625H61.7188C69.0625 74.0625 75 68.125 75 60.7813V14.2188C75 6.875 69.0625 0.9375 61.7188 0.9375ZM45.9375 52.5938H39.4031C39.1875 52.625 38.9687 52.4688 38.9062 52.25L36.3438 44.8125H24.7187L22.3438 52.1563C22.2813 52.4375 22.0313 52.625 21.75 52.5969H15.875C15.5312 52.5969 15.4375 52.4063 15.5312 52.0344L25.5937 23.0625C25.6875 22.75 25.7812 22.4063 25.9062 22.0313C26.0312 21.375 26.0938 20.6875 26.0938 20C26.0625 19.8438 26.1875 19.6875 26.3438 19.6563H34.4375C34.6875 19.6563 34.8125 19.75 34.8437 19.9063L46.25 52.0938C46.3438 52.4344 46.25 52.5938 45.9375 52.5938ZM56.5625 52.125C56.5625 52.4688 56.4406 52.625 56.1594 52.625H50.0313C49.7188 52.625 49.5625 52.4344 49.5625 52.125V28.0625C49.5625 27.75 49.6906 27.625 49.9719 27.625H56.1594C56.4406 27.625 56.5625 27.7813 56.5625 28.0625V52.125ZM55.9094 23.9063C55.5403 24.2811 55.0953 24.5726 54.6043 24.7612C54.1133 24.9499 53.5876 25.0313 53.0625 25C52.0312 25.0313 51.0313 24.625 50.2781 23.9063C49.5622 23.1234 49.1808 22.0916 49.2156 21.0313C49.1844 19.9688 49.5906 18.9688 50.3375 18.25C51.0937 17.5313 52.0937 17.1562 53.125 17.1562C54.3469 17.1562 55.2781 17.5313 55.9687 18.25C56.6562 19 57.0312 20 57 21.0313C57.0312 22.0938 56.6563 23.125 55.9094 23.9063Z" fill="#808080"/>
</g>
<defs>
<clipPath id="clip0_1174_9">
<rect width="75" height="75" fill="white"/>
</clipPath>
</defs>
</svg>
