<svg width="75" height="75" viewBox="0 0 75 75" fill="none" xmlns="http://www.w3.org/2000/svg">
<g clip-path="url(#clip0_1167_65)">
<path d="M57.4219 0H17.5781C7.86999 0 0 7.86999 0 17.5781V57.4219C0 67.13 7.86999 75 17.5781 75H57.4219C67.13 75 75 67.13 75 57.4219V17.5781C75 7.86999 67.13 0 57.4219 0Z" fill="#808080"/>
<path d="M50.1483 31.5208C47.0613 17.9033 40.6277 14.2781 38.9865 11.7155C38.3096 10.5866 37.7101 9.41313 37.192 8.20312C37.1053 9.41309 36.946 10.1748 35.9176 11.0924C33.8531 12.9331 25.0845 20.0786 24.3465 35.5512C23.6589 49.9775 34.952 58.8729 36.4438 59.7926C37.5911 60.3571 38.9882 59.8046 39.67 59.2863C45.1136 55.5504 52.5515 45.59 50.1542 31.5208" fill="white"/>
<path d="M37.6589 52.1113C37.3747 55.682 37.1711 57.7568 36.4492 59.7974C36.4492 59.7974 36.9229 63.1967 37.2558 66.7976H38.4332C38.7141 64.2618 39.1429 61.7446 39.7176 59.2589C38.1933 58.5089 37.7175 55.2446 37.6589 52.1113Z" fill="#B8C4C2"/>
<path d="M39.7154 59.2604C38.175 58.5488 37.7294 55.2157 37.6608 52.1108C38.0417 46.9889 38.1528 41.8504 37.9937 36.7168C37.9128 34.0232 38.0317 11.7682 37.3301 8.50977C37.8101 9.61334 38.3632 10.6837 38.9856 11.7137C40.6269 14.2783 47.0625 17.9035 50.1475 31.521C52.5507 45.5662 45.1532 55.5002 39.7154 59.2604Z" fill="#F2F2F2"/>
</g>
<defs>
<clipPath id="clip0_1167_65">
<rect width="75" height="75" fill="white"/>
</clipPath>
</defs>
</svg>
