<svg width="75" height="75" viewBox="0 0 75 75" fill="none" xmlns="http://www.w3.org/2000/svg">
<g clip-path="url(#clip0_1167_42)">
<path d="M57.4219 0H17.5781C7.87 0 0 7.87 0 17.5781V57.4219C0 67.13 7.87 75 17.5781 75H57.4219C67.13 75 75 67.13 75 57.4219V17.5781C75 7.87 67.13 0 57.4219 0Z" fill="#808080"/>
<path d="M23.2143 20.1394C20.2887 24.422 20.6532 29.9928 22.8821 34.5376L23.0461 34.8613L23.1569 35.0664C23.1774 35.1063 23.2008 35.1455 23.2222 35.1842C23.2609 35.2563 23.2996 35.3254 23.333 35.3963L23.5462 35.7689L23.6678 35.974L23.9154 36.3684L24.0261 36.5345C24.1369 36.7117 24.262 36.8878 24.385 37.0615L24.395 37.0753C24.4143 37.1031 24.436 37.1307 24.4506 37.1585C24.5567 37.3079 24.6718 37.4553 24.7826 37.6015L24.9056 37.7608L25.2074 38.1388L25.3225 38.2794C25.4599 38.4449 25.6002 38.6084 25.7435 38.7689L25.7523 38.7777C25.7579 38.7848 25.7634 38.7889 25.769 38.7959C25.9079 38.9526 26.0502 39.1059 26.1964 39.2556L26.3338 39.3962L26.6754 39.7375L26.8149 39.8726C26.9684 40.0196 27.1246 40.1641 27.2828 40.3062L27.3715 40.3835L27.7963 40.7491L27.9721 40.8921L28.3266 41.1689L28.5162 41.3157L29.0579 41.7115C29.0716 41.7209 29.0836 41.7309 29.0977 41.7402C29.2248 41.829 29.354 41.9148 29.4835 42.0007L29.6508 42.1141L30.2555 42.4908L30.4228 42.5866L30.8769 42.8456C30.9598 42.891 31.0448 42.9344 31.1277 42.9774L31.4523 43.1436L31.527 43.1802L31.66 43.2455L32.1747 43.4881L32.284 43.5435C32.4827 43.6316 32.6828 43.7163 32.8843 43.7975L33.0305 43.8563L33.5968 44.0699L33.6677 44.0954C33.8769 44.1693 34.0874 44.2395 34.2991 44.3061L34.4514 44.3523C34.6729 44.4188 34.8806 44.4982 35.1033 44.5407C49.2507 47.1745 53.3614 35.8876 53.3614 35.8876C49.9099 40.4673 43.7833 41.6743 37.979 40.3305C37.759 40.2751 37.5457 40.2104 37.331 40.1456L37.1693 40.0902C36.9604 40.0248 36.7525 39.9559 36.5458 39.8837L36.46 39.8521C36.2757 39.7856 36.0923 39.7163 35.9101 39.6443L35.7551 39.5822C35.5556 39.5023 35.3576 39.4184 35.1613 39.3309L35.0429 39.2778L34.5422 39.0397L34.3984 38.9688C34.2683 38.9033 34.139 38.8363 34.0105 38.7678L33.7521 38.6292C33.5958 38.5437 33.4411 38.4553 33.288 38.3641L33.1313 38.2753C32.9278 38.153 32.7262 38.0275 32.5266 37.8988C32.4712 37.8628 32.4179 37.8247 32.3631 37.7881L31.9328 37.4969L31.7945 37.3973L31.3875 37.0981L31.2068 36.9596L30.8397 36.6672L30.6759 36.5345L30.2189 36.1469C30.2015 36.1313 30.183 36.117 30.1635 36.1041C30.0011 35.9582 29.8409 35.8097 29.6831 35.6588L29.5477 35.5261L29.202 35.1815L29.0672 35.043C28.9233 34.8935 28.782 34.7414 28.6436 34.5868C28.6369 34.5789 28.6289 34.5719 28.6225 34.5646C28.476 34.4014 28.3328 34.235 28.1927 34.0662L28.0802 33.93L27.7703 33.5406L27.6566 33.3968L27.2995 32.9122C24.0768 28.4351 22.9248 22.2604 25.4942 17.1892L23.2143 20.1394ZM32.296 16.5312C30.1808 19.6322 30.2954 23.7821 31.9456 27.0616C32.2216 27.6122 32.5342 28.1437 32.8814 28.6524C33.1984 29.115 33.5499 29.6661 33.9706 30.037C34.123 30.2031 34.2824 30.3692 34.4453 30.5389C34.4863 30.5813 34.5285 30.6218 34.5704 30.6646C34.7286 30.8213 34.8903 30.9745 35.0555 31.1236C35.0622 31.1292 35.0684 31.1356 35.0754 31.1412C35.2616 31.3067 35.452 31.4674 35.6464 31.6231L35.775 31.7248C35.9684 31.8771 36.1662 32.0239 36.3674 32.1657C36.3727 32.1701 36.3783 32.1745 36.3841 32.1786C36.4726 32.241 36.564 32.3002 36.6542 32.36C36.6976 32.389 36.7383 32.4194 36.7817 32.4464C36.9261 32.541 37.0726 32.6324 37.2208 32.7206L37.283 32.7572L37.6706 32.9787C37.716 33.0048 37.7623 33.0273 37.8088 33.0517L38.0857 33.1946C38.0997 33.202 38.1135 33.2072 38.1267 33.214C38.3133 33.308 38.5011 33.3968 38.6933 33.4826C38.7343 33.5008 38.7762 33.5175 38.8184 33.5351C38.9723 33.6019 39.1274 33.666 39.2836 33.7272L39.4829 33.8017C39.6244 33.8541 39.7665 33.9045 39.9094 33.9528L40.1019 34.0152C40.3052 34.08 40.5062 34.1608 40.7183 34.1969C51.6414 36.0399 54.1638 27.4741 54.1638 27.4741C51.8907 30.8078 47.4888 32.3995 42.7905 31.1579C42.5827 31.1025 42.3765 31.0416 42.172 30.9751C42.1093 30.9558 42.0481 30.9353 41.986 30.9197C41.8409 30.8719 41.6967 30.8213 41.5536 30.768L41.3579 30.6938C41.2011 30.6385 41.0461 30.5693 40.8929 30.5028C40.8507 30.4844 40.8085 30.468 40.7672 30.4486C40.5745 30.3643 40.3843 30.2743 40.1968 30.1788C40.1004 30.1308 40.0058 30.0804 39.9109 30.0303L39.7459 29.9441C39.6242 29.8771 39.5036 29.8079 39.3844 29.7364L39.298 29.6811C39.1506 29.5929 39.0047 29.502 38.8606 29.4086C38.8161 29.3796 38.773 29.3532 38.7288 29.3189L38.4452 29.1279C38.2449 28.9861 38.048 28.8395 37.8548 28.6882L37.7218 28.5818C35.6658 26.9283 34.0354 24.6689 33.2608 22.1066C32.4484 19.4485 32.6239 16.4664 34.036 14.0459L32.296 16.5312ZM39.9326 13.8355C38.6854 15.705 38.5632 18.0265 39.4342 20.091C40.3468 22.2821 42.2168 24.0016 44.3992 24.8163C44.4891 24.8506 44.5793 24.8808 44.676 24.9121L44.7958 24.9508C44.9242 24.9918 45.0522 25.0393 45.1846 25.065C51.2163 26.2516 52.8519 21.9127 53.2872 21.274C51.854 23.3758 49.4458 23.8803 46.491 23.1499C46.2583 23.0916 46.0008 23.0058 45.7708 22.9252C45.4817 22.8206 45.1984 22.7006 44.9221 22.5657C44.3962 22.3078 43.8975 21.9977 43.4335 21.6402C40.7836 19.5968 39.1407 15.6994 40.8663 12.5254M26.6122 53.5205L26.2038 54.9692L26.6122 53.5211V53.5205ZM38.6201 50.2035H36.7483C36.6952 50.2054 36.6443 50.2245 36.603 50.2578C36.5617 50.2911 36.5323 50.3369 36.5192 50.3884L35.19 56.5393C35.1769 56.5905 35.1475 56.6362 35.1063 56.6694C35.0652 56.7026 35.0143 56.7216 34.9615 56.7235H33.6364C32.325 56.7235 32.4768 55.8171 32.7501 54.5749L32.7586 54.5374L32.9174 53.6901L32.986 53.3412L33.591 50.3884C33.5967 50.3658 33.5971 50.3423 33.5921 50.3195C33.5871 50.2968 33.5768 50.2756 33.5621 50.2576C33.5474 50.2395 33.5287 50.2252 33.5074 50.2157C33.4862 50.2062 33.463 50.2018 33.4398 50.2029H31.5182C31.4653 50.2048 31.4143 50.2238 31.3732 50.2572C31.332 50.2905 31.3028 50.3364 31.29 50.3878L30.4243 54.4935C29.9482 56.6664 30.0745 58.7389 32.6617 58.8036L32.7364 58.8051H36.7966C36.8496 58.8031 36.9006 58.7841 36.9418 58.7508C36.9831 58.7174 37.0124 58.6716 37.0254 58.6202L38.7762 50.3878C38.7985 50.2861 38.7302 50.2029 38.6268 50.2029L38.6201 50.2035ZM46.0887 56.7452C46.193 56.7452 46.2548 56.8281 46.2399 56.9301L46.0582 57.8189L46.0887 56.7452Z" fill="white"/>
<path d="M41.0805 55.6003C41.079 55.5027 41.1897 55.3354 41.2938 55.3354L41.06 55.3316C40.9492 56.3916 41.0805 55.6003 41.0805 55.6003ZM46.0882 56.7443C46.1925 56.7443 46.2543 56.8272 46.2394 56.9292L46.0278 57.9625L46.0882 56.7443ZM42.6057 58.9105H42.5181H42.6168H42.6057ZM15.0845 55.6223L15.3754 54.3332L15.0432 55.8062L15.0042 55.9911L15.0851 55.6214L15.0845 55.6223ZM18.5655 50.1815H16.5095C16.4563 50.1834 16.4051 50.2024 16.3635 50.2356C16.3219 50.2689 16.2922 50.3146 16.2786 50.3661L15.8887 52.0826C15.8822 52.1048 15.8812 52.1283 15.8856 52.151C15.8901 52.1737 15.9 52.195 15.9145 52.2131C15.9289 52.2312 15.9475 52.2456 15.9687 52.255C15.9898 52.2644 16.0129 52.2686 16.036 52.2672H18.1082C18.1612 52.2652 18.2121 52.2462 18.2534 52.2129C18.2947 52.1796 18.3241 52.134 18.3373 52.0826L18.7141 50.362C18.736 50.2609 18.6695 50.1777 18.5646 50.1777L18.5655 50.1815ZM12.1451 62.2885L13.8408 62.302C13.3401 62.302 12.5137 62.2926 12.1445 62.2882L12.1451 62.2885Z" fill="white"/>
<path d="M17.9702 52.8588H15.8975C15.8443 52.8607 15.7931 52.8797 15.7515 52.9129C15.7099 52.9461 15.6802 52.9919 15.6666 53.0434L15.0851 55.6215L15.0042 55.9915L14.4505 58.6235C14.4232 58.7463 14.3898 58.8679 14.3509 58.9874C14.3509 58.9874 13.9633 60.1394 13.3132 60.1265L12.6681 60.1145C12.6151 60.1158 12.564 60.1341 12.5221 60.1665C12.4803 60.199 12.4499 60.244 12.4354 60.2949L12.0062 62.1017C11.9995 62.1238 11.9982 62.1471 12.0024 62.1698C12.0066 62.1926 12.0161 62.2139 12.0303 62.2322C12.0444 62.2504 12.0627 62.265 12.0837 62.2747C12.1046 62.2844 12.1276 62.289 12.1507 62.288L13.847 62.3018C15.4729 62.3018 16.3296 61.4006 16.8792 58.809L18.1252 53.0498C18.1475 52.9487 18.0798 52.8655 17.9758 52.8655L17.9702 52.8588ZM47.4095 58.8052C47.3055 58.8052 47.2434 58.7223 47.2601 58.6203L48.8189 51.3184L47.4095 58.8052Z" fill="white"/>
<path d="M47.2832 58.7139C47.2707 58.6629 47.278 58.5381 47.2999 58.4367L48.0397 54.9703L47.2601 58.6213C47.2378 58.7232 47.3055 58.8062 47.4095 58.8062H47.5991C47.4951 58.8062 47.2956 58.7646 47.2832 58.7139ZM49.4541 58.7646C49.3976 58.7868 49.2658 58.8062 49.1618 58.8062H49.351C49.4038 58.804 49.4545 58.7848 49.4955 58.7513C49.5364 58.7179 49.5654 58.672 49.5781 58.6207L49.6159 58.4358C49.5954 58.5375 49.5051 58.742 49.4497 58.7646H49.4541ZM56.0427 51.8083L56.1286 52.1628C56.1526 52.2642 56.0867 52.3465 55.983 52.3471M50.1702 55.6869L50.2466 55.3192L50.544 53.9265L50.2074 55.5035L50.1702 55.6863V55.6869ZM48.8451 51.1992L48.7803 51.5036L48.0403 54.9703L48.8202 51.3193L48.8451 51.1998V51.1992Z" fill="white"/>
<path d="M56.1292 52.1616L56.0433 51.8071L55.9162 51.2534C55.7477 50.5998 55.2538 50.2216 54.1806 50.2216L49.2409 50.2184C49.1879 50.2201 49.137 50.2392 49.0959 50.2725C49.0547 50.3059 49.0256 50.3518 49.0129 50.4032L48.9365 50.765L48.8257 51.3114L47.3061 58.4291C47.2838 58.5311 47.2768 58.6506 47.2894 58.706C47.3023 58.7613 47.5015 58.7985 47.6052 58.7985H49.1667C49.2708 58.7985 49.402 58.7795 49.4591 58.7569C49.5163 58.7341 49.5998 58.5354 49.6252 58.4279L50.2179 55.4962L50.8519 52.5258C50.865 52.4746 50.8943 52.429 50.9354 52.3958C50.9765 52.3625 51.0273 52.3435 51.0801 52.3415L55.9935 52.3392C56.0972 52.3392 56.1631 52.2562 56.1391 52.1549L56.1292 52.1616ZM62.4549 48.9536L62.0767 48.9551H60.5041C60.4465 48.9587 60.3903 48.9744 60.3393 49.0014C60.2883 49.0283 60.2436 49.0657 60.2082 49.1112L56.7306 54.206C56.672 54.2918 56.6049 54.2792 56.5812 54.1784L56.3251 53.0558C56.3114 53.0044 56.2816 52.9588 56.2401 52.9256C56.1985 52.8924 56.1474 52.8735 56.0943 52.8715H53.8589C53.7546 52.8715 53.6928 52.9529 53.7215 53.0531L54.7182 56.5629C54.7469 56.6625 54.7487 56.8269 54.7238 56.9282L54.2808 58.6269C54.2731 58.6486 54.271 58.6719 54.2747 58.6947C54.2785 58.7174 54.2879 58.7388 54.3022 58.7569C54.3164 58.7751 54.3349 58.7895 54.356 58.7987C54.3771 58.808 54.4002 58.8118 54.4232 58.81H56.638C56.6915 58.8078 56.743 58.789 56.7853 58.7563C56.8276 58.7235 56.8587 58.6784 56.8742 58.6271L57.3171 56.9288C57.3517 56.8093 57.4062 56.6962 57.4777 56.5945L63.1293 49.1004C63.192 49.0172 63.1584 48.9498 63.0541 48.9507L62.4617 48.9548L62.4549 48.9536ZM44.6922 53.3487C44.6791 53.4595 44.575 53.5427 44.4708 53.5427H41.6354C41.5375 53.5427 41.4877 53.4762 41.5027 53.393L41.5047 53.378L41.5176 53.33C41.7945 52.6102 42.34 52.1376 43.3759 52.1376C44.5428 52.1376 44.7705 52.708 44.6914 53.3487H44.6922ZM43.8605 50.0771C40.2224 50.0771 39.3602 52.2855 38.8768 54.5145C38.3928 56.7864 38.4347 58.9113 42.1994 58.9113H42.7961L43.2558 58.9096L45.6514 58.8952C45.704 58.8928 45.7543 58.8735 45.795 58.84C45.8356 58.8066 45.8643 58.7609 45.8767 58.7098L46.2406 56.9311C46.2617 56.8292 46.1937 56.746 46.0894 56.746H42.7047C41.3591 56.746 40.9589 56.3883 41.106 55.3368H46.5166C46.5601 55.3363 46.6024 55.3227 46.6382 55.2979C46.6739 55.273 46.7013 55.238 46.7169 55.1974C46.7231 55.1822 46.7275 55.1664 46.7301 55.1502C47.5332 52.1212 47.3029 50.0795 43.8617 50.0795L43.8605 50.0771ZM26.6638 53.3367L26.6128 53.5178L26.2044 54.9662L25.7958 56.4138C25.7788 56.4648 25.7467 56.5095 25.7039 56.5419C25.661 56.5743 25.6092 56.593 25.5555 56.5954H23.3922C21.7519 56.5954 21.3526 55.3125 21.7519 53.4202C22.1506 51.4849 22.9343 50.2813 24.5486 50.1598C26.7546 49.9937 27.1956 51.5452 26.6638 53.3361V53.3367ZM28.1468 56.4847C28.1468 56.4847 29.1658 54.0094 29.3984 52.5791C29.7139 50.6645 28.7562 47.8887 25.0542 47.8887C21.3731 47.8887 19.775 50.5389 19.1656 53.4264C18.5562 56.3279 19.3548 58.8732 23.014 58.8533L28.5992 58.8328C28.6527 58.8301 28.7042 58.811 28.7465 58.7781C28.7888 58.7452 28.82 58.7001 28.8359 58.6488L29.3064 56.8559C29.3139 56.8342 29.316 56.8109 29.3124 56.7883C29.3088 56.7656 29.2997 56.7441 29.2859 56.7258C29.272 56.7073 29.2536 56.6927 29.2325 56.6832C29.2114 56.6738 29.1882 56.6699 29.1652 56.6719L28.2643 56.6663C28.1758 56.6657 28.1257 56.6089 28.1357 56.5336C28.1379 56.5192 28.1416 56.505 28.1468 56.4914V56.4847Z" fill="white"/>
<path d="M46.3673 54.8291C46.3673 54.8621 46.3542 54.8936 46.3309 54.9169C46.3077 54.9402 46.2761 54.9532 46.2432 54.9532C46.2103 54.9532 46.1787 54.9402 46.1555 54.9169C46.1322 54.8936 46.1191 54.8621 46.1191 54.8291C46.1191 54.7962 46.1322 54.7647 46.1555 54.7414C46.1787 54.7181 46.2103 54.7051 46.2432 54.7051C46.2761 54.7051 46.3077 54.7181 46.3309 54.7414C46.3542 54.7647 46.3673 54.7962 46.3673 54.8291Z" fill="white"/>
</g>
<defs>
<clipPath id="clip0_1167_42">
<rect width="75" height="75" fill="white"/>
</clipPath>
</defs>
</svg>
