<svg width="75" height="75" viewBox="0 0 75 75" fill="none" xmlns="http://www.w3.org/2000/svg">
<g clip-path="url(#clip0_1167_51)">
<path d="M57.4219 0H17.5781C7.86999 0 0 7.86999 0 17.5781V57.4219C0 67.13 7.86999 75 17.5781 75H57.4219C67.13 75 75 67.13 75 57.4219V17.5781C75 7.86999 67.13 0 57.4219 0Z" fill="#808080"/>
<mask id="mask0_1167_51" style="mask-type:luminance" maskUnits="userSpaceOnUse" x="17" y="8" width="40" height="59">
<path d="M17.8711 8.20312H56.9414V66.7969H17.8711V8.20312Z" fill="white"/>
</mask>
<g mask="url(#mask0_1167_51)">
<path d="M27.6408 66.797C33.0314 66.797 37.4063 62.4221 37.4063 57.0315V47.2656H27.6408C22.2502 47.2656 17.875 51.6408 17.875 57.0315C17.875 62.4221 22.2502 66.797 27.6408 66.797Z" fill="white"/>
<path d="M17.875 37.4999C17.875 32.1093 22.2502 27.7344 27.6408 27.7344H37.4063V47.2654H27.6408C22.2502 47.2654 17.875 42.8905 17.875 37.4999Z" fill="#F2F2F2"/>
<path d="M17.875 17.9687C17.875 12.578 22.2502 8.20312 27.6408 8.20312H37.4063V27.7345H27.6408C22.2502 27.7345 17.875 23.3593 17.875 17.9687Z" fill="#C2C2C2"/>
<path d="M37.4062 8.20312H47.1718C52.5624 8.20312 56.9376 12.578 56.9376 17.9687C56.9376 23.3593 52.5624 27.7345 47.1718 27.7345H37.4062V8.20312Z" fill="#E9E9E9"/>
<path d="M56.9376 37.4999C56.9376 42.8905 52.5624 47.2654 47.1718 47.2654C41.7812 47.2654 37.4062 42.8905 37.4062 37.4999C37.4062 32.1093 41.7812 27.7344 47.1718 27.7344C52.5624 27.7344 56.9376 32.1093 56.9376 37.4999Z" fill="#ACACAC"/>
</g>
</g>
<defs>
<clipPath id="clip0_1167_51">
<rect width="75" height="75" fill="white"/>
</clipPath>
</defs>
</svg>
