<svg width="75" height="75" viewBox="0 0 75 75" fill="none" xmlns="http://www.w3.org/2000/svg">
<g clip-path="url(#clip0_1167_35)">
<path d="M57.4219 0H17.5781C7.87 0 0 7.87 0 17.5781V57.4219C0 67.13 7.87 75 17.5781 75H57.4219C67.13 75 75 67.13 75 57.4219V17.5781C75 7.87 67.13 0 57.4219 0Z" fill="#808080"/>
<path d="M37.5008 43.0523C40.5195 43.0523 42.9664 40.6052 42.9664 37.5867C42.9664 34.5683 40.5195 32.1211 37.5008 32.1211C34.4823 32.1211 32.0352 34.5683 32.0352 37.5867C32.0352 40.6052 34.4823 43.0523 37.5008 43.0523Z" fill="#F5F5F5"/>
<path d="M37.5006 26.4727C44.8389 26.4727 51.656 27.5256 56.7961 29.2954C62.9892 31.4273 66.7969 34.6591 66.7969 37.5855C66.7969 40.6351 62.7615 44.0684 56.1108 46.2718C51.0829 47.9376 44.4665 48.8071 37.5006 48.8071C30.3586 48.8071 23.5954 47.9909 18.5106 46.2533C12.0776 44.0546 8.20312 40.5771 8.20312 37.5855C8.20312 34.6828 11.8389 31.476 17.9449 29.3473C23.1041 27.5484 30.0894 26.4727 37.4994 26.4727H37.5006Z" stroke="#F5F5F5" stroke-width="2"/>
<path d="M27.8257 32.0619C31.4919 25.7051 35.8094 20.3256 39.9104 16.7572C44.851 12.4573 49.5532 10.7733 52.0879 12.235C54.7296 13.7584 55.6879 18.9697 54.2744 25.8316C53.2065 31.0192 50.6536 37.1851 47.1734 43.2196C43.6053 49.4065 39.5199 54.8575 35.4749 58.3931C30.3564 62.8673 25.4079 64.4865 22.8166 62.9921C20.302 61.5431 19.3405 56.7908 20.5469 50.4378C21.5662 45.0697 24.1241 38.4811 27.8246 32.0619H27.8257Z" stroke="#F5F5F5" stroke-width="2"/>
<path d="M27.8352 43.235C24.1587 36.8852 21.6556 30.4569 20.6109 25.1219C19.3532 18.6939 20.2423 13.7793 22.775 12.3133C25.4144 10.7852 30.4075 12.5577 35.6463 17.2094C39.6073 20.7262 43.6746 26.0163 47.1647 32.0451C50.743 38.2261 53.4248 44.4883 54.4681 49.7582C55.7882 56.4274 54.7198 61.523 52.1308 63.0215C49.6189 64.4758 45.0219 62.9363 40.1203 58.7181C35.9789 55.1544 31.548 49.6481 27.8352 43.235Z" stroke="#F5F5F5" stroke-width="2"/>
</g>
<defs>
<clipPath id="clip0_1167_35">
<rect width="75" height="75" fill="white"/>
</clipPath>
</defs>
</svg>
