<svg width="100" height="100" viewBox="0 0 100 100" fill="none" xmlns="http://www.w3.org/2000/svg">
<path d="M77.4435 24.975C75.4622 17.2062 62.5779 14.6625 50.3841 18.9812C42.7474 21.5469 35.6919 25.594 29.6216 30.8906C22.906 37.1719 21.8341 42.6406 22.2747 44.925C23.8372 52.9875 34.8779 58.2562 39.4185 62.1656V62.1875C38.081 62.8469 28.281 67.8125 25.981 72.875C23.5622 78.225 26.3654 82.0625 28.2247 82.5781C31.0164 83.2502 33.9484 83.0315 36.6094 81.9526C39.2704 80.8737 41.5269 78.9889 43.0622 76.5625C44.3321 74.597 45.1265 72.3627 45.3825 70.0367C45.6386 67.7107 45.3491 65.3571 44.5372 63.1625C46.7239 62.6037 48.9979 62.4732 51.2341 62.7781C58.9091 63.675 60.4154 68.4656 60.1279 70.4719C59.9926 71.186 59.7052 71.8627 59.2852 72.4558C58.8651 73.049 58.3222 73.5447 57.6935 73.9094C57.156 74.2437 56.9904 74.3562 57.0372 74.6062C57.1029 74.9656 57.3497 74.9531 57.8091 74.875C58.9625 74.5117 59.9787 73.8076 60.724 72.8554C61.4693 71.9031 61.9086 70.7475 61.9841 69.5406C62.1685 64.8531 57.6654 59.5844 49.6904 59.7187C47.374 59.6505 45.0624 59.9673 42.8497 60.6562L42.5122 60.2812C37.581 55.0219 28.4685 51.3 28.8529 44.2281C28.9935 41.6562 29.8872 34.8875 46.3529 26.675C59.8529 19.9469 70.6591 21.8 72.5279 25.9031C75.1966 31.7656 66.7529 42.6562 52.7341 44.2281C51.1847 44.5427 49.5843 44.5043 48.0517 44.1159C46.5191 43.7274 45.0936 42.9989 43.881 41.9844C43.1435 41.1719 43.0341 41.1375 42.7591 41.2875C42.3122 41.5344 42.5966 42.2531 42.7591 42.6781C43.296 43.6454 44.0207 44.4958 44.8905 45.1795C45.7604 45.8631 46.7579 46.3662 47.8247 46.6594C53.3367 47.8553 59.0851 47.2868 64.256 45.0344C72.7591 41.7562 79.3904 32.6156 77.4435 24.975ZM41.306 64.5719C41.9236 66.7119 41.8921 68.9872 41.2154 71.1094C41.1425 71.3302 41.0622 71.5489 40.9747 71.7656C40.8872 71.9823 40.7925 72.1906 40.6904 72.3906C40.161 73.4647 39.4801 74.4571 38.6685 75.3375C36.1279 78.1094 32.5747 79.1594 31.0529 78.275C29.4091 77.3219 30.231 73.4125 33.1779 70.2969C35.443 68.0587 38.0534 66.1995 40.9091 64.7906L41.306 64.5719Z" fill="#CC6699"/>
</svg>
