<svg width="75" height="75" viewBox="0 0 75 75" fill="none" xmlns="http://www.w3.org/2000/svg">
<path opacity="0.6" d="M36.4594 6.25H26.0406C23.2778 6.25 20.6281 7.34752 18.6745 9.30112C16.7209 11.2547 15.6234 13.9044 15.6234 16.6672C15.6234 19.43 16.7209 22.0797 18.6745 24.0333C20.6281 25.9869 23.2778 27.0844 26.0406 27.0844H36.4594V6.25Z" fill="black"/>
<path opacity="0.4" d="M36.4594 27.084H26.0406C23.2782 27.084 20.629 28.1813 18.6757 30.1347C16.7224 32.088 15.625 34.7372 15.625 37.4996C15.625 40.262 16.7224 42.9113 18.6757 44.8646C20.629 46.8179 23.2782 47.9152 26.0406 47.9152H36.4594V27.084Z" fill="black"/>
<path d="M57.2907 37.4992C57.2907 40.262 56.1932 42.9117 54.2395 44.8653C52.2859 46.8189 49.6363 47.9164 46.8735 47.9164C44.1107 47.9164 41.461 46.8189 39.5074 44.8653C37.5538 42.9117 36.4563 40.262 36.4563 37.4992C36.4563 34.7364 37.5538 32.0868 39.5074 30.1332C41.461 28.1796 44.1107 27.082 46.8735 27.082C49.6363 27.082 52.2859 28.1796 54.2395 30.1332C56.1932 32.0868 57.2907 34.7364 57.2907 37.4992Z" fill="black"/>
<path opacity="0.2" d="M26.0407 47.9191H36.4594V58.3348C36.4588 60.3945 35.8475 62.4078 34.7028 64.1202C33.5581 65.8326 31.9313 67.1671 30.0282 67.955C28.1252 68.743 26.0312 68.949 24.011 68.547C21.9909 68.145 20.1353 67.1531 18.6788 65.6966C17.2224 64.2401 16.2305 62.3845 15.8285 60.3644C15.4265 58.3442 15.6325 56.2503 16.4204 54.3472C17.2084 52.4441 18.5429 50.8174 20.2552 49.6727C21.9676 48.5279 23.9809 47.9198 26.0407 47.9191Z" fill="black"/>
<path opacity="0.8" d="M36.4563 6.25H46.8719C49.6347 6.25 52.2844 7.34752 54.238 9.30112C56.1916 11.2547 57.2891 13.9044 57.2891 16.6672C57.2891 19.43 56.1916 22.0797 54.238 24.0333C52.2844 25.9869 49.6347 27.0844 46.8719 27.0844H36.4563V6.25Z" fill="black"/>
</svg>
