<svg width="100" height="100" viewBox="0 0 100 100" fill="none" xmlns="http://www.w3.org/2000/svg">
<path fill-rule="evenodd" clip-rule="evenodd" d="M35.4333 12.2475C32.7667 11.4742 30.8 11.6808 29.3667 12.4608C27.9267 13.2342 26.6733 14.7742 25.86 17.4275C25.0467 20.1008 24.7733 23.6675 25.1667 27.9742C25.2333 28.6742 25.3133 29.3875 25.4133 30.1142C29.091 29.191 32.8227 28.4986 36.5867 28.0408C39.158 24.4099 41.9994 20.978 45.0867 17.7742C44.9407 17.6555 44.794 17.5377 44.6467 17.4208C41.26 14.7408 38.1133 13.0208 35.4333 12.2475ZM50 13.1808C49.6 12.8475 49.1933 12.5142 48.7867 12.1942C44.9733 9.18085 41.0667 6.93418 37.2933 5.84085C33.4933 4.74085 29.6067 4.74085 26.1867 6.60085C22.7667 8.45418 20.6333 11.7142 19.4867 15.4942C18.34 19.2542 18.0867 23.7475 18.5267 28.5942C18.6333 29.7275 18.7733 30.8875 18.96 32.0808C17.8267 32.4808 16.7333 32.9142 15.6933 33.3608C11.22 35.2742 7.38667 37.6408 4.62667 40.4408C1.85333 43.2475 0 46.6675 0 50.5608C0 54.4475 1.85333 57.8742 4.62667 60.6875C7.38667 63.4875 11.22 65.8475 15.6933 67.7675C16.7333 68.2142 17.8267 68.6409 18.96 69.0475C18.7803 70.2051 18.6358 71.3678 18.5267 72.5342C18.0867 77.3742 18.34 81.8675 19.4867 85.6342C20.6333 89.4142 22.7667 92.6742 26.1867 94.5209C29.6067 96.3742 33.5 96.3809 37.2933 95.2809C41.0667 94.1809 44.9733 91.9475 48.7867 88.9275L50 87.9342C50.4 88.2742 50.8067 88.6009 51.2133 88.9275C55.0267 91.9409 58.9333 94.1809 62.7067 95.2809C66.5 96.3809 70.3933 96.3742 73.8133 94.5209C77.2333 92.6742 79.3667 89.4142 80.5133 85.6342C81.66 81.8742 81.9133 77.3742 81.4733 72.5342C81.3645 71.3678 81.22 70.2051 81.04 69.0475C82.1423 68.6559 83.2318 68.229 84.3067 67.7675C88.78 65.8475 92.6133 63.4808 95.3733 60.6875C98.1467 57.8742 100 54.4475 100 50.5542C100 46.6742 98.1467 43.2475 95.3733 40.4342C92.6133 37.6342 88.78 35.2675 84.3067 33.3542C83.2309 32.8947 82.1415 32.4678 81.04 32.0742C81.22 30.8808 81.3667 29.7208 81.4733 28.5875C81.9133 23.7408 81.66 19.2542 80.5133 15.4875C79.3667 11.7075 77.2333 8.44751 73.8133 6.59418C70.4 4.74085 66.5 4.74085 62.7067 5.84085C58.9333 6.93418 55.0267 9.17418 51.2133 12.1942L50 13.1808ZM50 22.2808C48.5 23.8142 47 25.5008 45.52 27.3142C48.5055 27.196 51.4945 27.196 54.48 27.3142C53.0619 25.5709 51.5671 23.8915 50 22.2808ZM63.4133 28.0408C60.68 24.2142 57.8133 20.7608 54.9133 17.7742L55.3467 17.4208C58.7467 14.7408 61.88 13.0208 64.5667 12.2475C67.2267 11.4742 69.2 11.6808 70.6333 12.4608C72.0733 13.2342 73.3267 14.7742 74.1333 17.4275C74.9467 20.1008 75.2267 23.6675 74.8333 27.9742C74.7667 28.6742 74.6867 29.3875 74.5867 30.1075C70.9089 29.1866 67.1772 28.4964 63.4133 28.0408ZM59.66 34.3342C53.2339 33.7358 46.7661 33.7358 40.34 34.3342C36.907 39.4693 33.9375 44.8996 31.4667 50.5608C33.9378 56.2185 36.905 61.6464 40.3333 66.7809C46.7639 67.3798 53.2361 67.3798 59.6667 66.7809C63.0969 61.6475 66.0641 56.2195 68.5333 50.5608C66.0626 44.9008 63.0888 39.4707 59.66 34.3342ZM71.8267 41.9208C70.7231 39.7599 69.5514 37.6343 68.3133 35.5475C70.0467 35.8808 71.72 36.2542 73.3267 36.6675C72.9067 38.3742 72.4067 40.1342 71.8267 41.9208ZM71.8267 59.1942C70.7249 61.3583 69.5531 63.4861 68.3133 65.5742C70.0467 65.2409 71.72 64.8675 73.3267 64.4475C72.8882 62.6794 72.3879 60.9272 71.8267 59.1942ZM79.6933 62.4409C78.6576 58.3965 77.3479 54.4274 75.7733 50.5608C77.4133 46.4942 78.7267 42.5008 79.6933 38.6808C80.38 38.9342 81.0467 39.2075 81.6933 39.4808C85.6667 41.1875 88.6733 43.1275 90.6333 45.1142C92.58 47.0875 93.34 48.9275 93.34 50.5608C93.34 52.1942 92.58 54.0275 90.6333 56.0008C88.6733 57.9942 85.6667 59.9342 81.6933 61.6409C81.0325 61.9219 80.3657 62.1886 79.6933 62.4409ZM74.5933 71.0075C70.916 71.9321 67.1842 72.6246 63.42 73.0809C60.6867 76.9075 57.82 80.3542 54.92 83.3475L55.36 83.6942C58.7467 86.3809 61.8933 88.0942 64.5733 88.8742C67.2333 89.6475 69.2067 89.4409 70.64 88.6609C72.08 87.8809 73.3333 86.3409 74.14 83.6875C74.96 81.0209 75.2333 77.4475 74.84 73.1408C74.7732 72.428 74.691 71.7168 74.5933 71.0075ZM50 78.8409C51.5 77.3075 53 75.6209 54.48 73.8075C51.4945 73.926 48.5055 73.926 45.52 73.8075C47 75.6209 48.5 77.3009 50 78.8409ZM31.6933 65.5742C30.4541 63.4858 29.2823 61.358 28.18 59.1942C27.6 60.9942 27.1 62.7408 26.68 64.4475C28.28 64.8675 29.96 65.2409 31.6933 65.5742ZM25.4133 71.0075C29.0906 71.9321 32.8225 72.6246 36.5867 73.0809C39.32 76.9075 42.18 80.3542 45.0867 83.3475C44.9407 83.464 44.794 83.5795 44.6467 83.6942C41.26 86.3809 38.1133 88.0942 35.4333 88.8742C32.7667 89.6475 30.8 89.4409 29.36 88.6609C27.92 87.8809 26.6733 86.3409 25.86 83.6875C25.0467 81.0209 24.7733 77.4475 25.1667 73.1408C25.2335 72.428 25.3158 71.7168 25.4133 71.0075ZM20.3133 62.4409C21.28 58.6142 22.5867 54.6275 24.2333 50.5608C22.6587 46.6943 21.3491 42.7252 20.3133 38.6808C19.6417 38.9348 18.9749 39.2016 18.3133 39.4808C14.34 41.1875 11.3333 43.1275 9.37333 45.1142C7.42667 47.0875 6.66667 48.9275 6.66667 50.5608C6.66667 52.1942 7.42667 54.0275 9.37333 56.0008C11.3333 57.9942 14.34 59.9342 18.3133 61.6409C18.96 61.9142 19.6267 62.1809 20.3133 62.4409ZM26.68 36.6742C27.1 38.3742 27.6 40.1342 28.18 41.9208C29.283 39.7596 30.4548 37.6341 31.6933 35.5475C29.96 35.8808 28.2867 36.2542 26.68 36.6742ZM40 50.5608C40 47.9087 41.0536 45.3651 42.9289 43.4898C44.8043 41.6144 47.3478 40.5608 50 40.5608C52.6522 40.5608 55.1957 41.6144 57.0711 43.4898C58.9464 45.3651 60 47.9087 60 50.5608C60 53.213 58.9464 55.7566 57.0711 57.6319C55.1957 59.5073 52.6522 60.5608 50 60.5608C47.3478 60.5608 44.8043 59.5073 42.9289 57.6319C41.0536 55.7566 40 53.213 40 50.5608ZM50 47.2275C49.1159 47.2275 48.2681 47.5787 47.643 48.2038C47.0179 48.8289 46.6667 49.6768 46.6667 50.5608C46.6667 51.4449 47.0179 52.2927 47.643 52.9179C48.2681 53.543 49.1159 53.8942 50 53.8942C50.8841 53.8942 51.7319 53.543 52.357 52.9179C52.9821 52.2927 53.3333 51.4449 53.3333 50.5608C53.3333 49.6768 52.9821 48.8289 52.357 48.2038C51.7319 47.5787 50.8841 47.2275 50 47.2275Z" fill="#808080"/>
</svg>
